<?xml version="1.0" encoding="UTF-8"?>
<svg version="1.1" xmlns="http://www.w3.org/2000/svg" width="103" height="24">
<path d="M0 0 C2.31 0 4.62 0 7 0 C8.52106634 3.04213267 8.37429338 6.28047572 8.5625 9.625 C8.60568359 10.33140625 8.64886719 11.0378125 8.69335938 11.765625 C8.79944751 13.51018537 8.90022889 15.25506697 9 17 C10.65 16.34 12.3 15.68 14 15 C14.06058594 14.00097656 14.12117188 13.00195312 14.18359375 11.97265625 C14.26738281 10.68230469 14.35117187 9.39195313 14.4375 8.0625 C14.51871094 6.77472656 14.59992187 5.48695312 14.68359375 4.16015625 C15 1 15 1 16 0 C18.9375 -0.1875 18.9375 -0.1875 22 0 C24.84614024 2.84614024 24.45579076 5.80369142 24.625 9.625 C24.66367188 10.33140625 24.70234375 11.0378125 24.7421875 11.765625 C24.83647724 13.50998524 24.91932891 15.25495691 25 17 C26.65 17 28.3 17 30 17 C29.97679688 16.10796875 29.95359375 15.2159375 29.9296875 14.296875 C29.90261719 12.54117187 29.90261719 12.54117187 29.875 10.75 C29.85179688 9.58984375 29.82859375 8.4296875 29.8046875 7.234375 C29.9896051 4.17213954 30.39176977 2.55797249 32 0 C34.875 -0.125 34.875 -0.125 38 0 C40.83453939 2.83453939 40.29999688 4.79901288 40.3125 8.75 C40.32925781 9.96171875 40.34601563 11.1734375 40.36328125 12.421875 C39.96558662 16.33895326 39.13452178 18.70425982 37 22 C33.82295315 24.39997695 30.765726 24.24007738 26.875 24.1875 C25.82054688 24.18105469 24.76609375 24.17460937 23.6796875 24.16796875 C21 24 21 24 19 23 C18.34 23.33 17.68 23.66 17 24 C6.59395414 24.93762008 6.59395414 24.93762008 1.8125 22.125 C-1.49474386 18.24754168 -1.15064235 14.88914169 -1.125 10 C-1.12886719 9.26265625 -1.13273437 8.5253125 -1.13671875 7.765625 C-1.1266598 2.2533196 -1.1266598 2.2533196 0 0 Z " fill="#8F3285" transform="translate(47,0)"/>
<path d="M0 0 C1.13308594 -0.00515625 2.26617187 -0.0103125 3.43359375 -0.015625 C6.43849266 0.23947254 8.07934752 0.60027341 10.5625 2.25 C14.70654359 7.72605761 14.23731657 14.68587515 13.5625 21.25 C12.9025 22.24 12.2425 23.23 11.5625 24.25 C8.5625 24.625 8.5625 24.625 5.5625 24.25 C3.13770264 20.61280395 3.17587423 18.39296518 2.9375 14.0625 C2.82535156 12.15404297 2.82535156 12.15404297 2.7109375 10.20703125 C2.66195313 9.23121094 2.61296875 8.25539063 2.5625 7.25 C0.58713255 7.59786708 0.58713255 7.59786708 -1.4375 8.25 C-3.27837181 11.93174362 -2.90718405 16.31824181 -3.15625 20.37890625 C-3.4375 23.25 -3.4375 23.25 -4.4375 24.25 C-7.375 24.4375 -7.375 24.4375 -10.4375 24.25 C-12.89334238 21.79415762 -12.72296623 20.34845495 -12.75976562 16.98632812 C-12.75654297 16.31021484 -12.75332031 15.63410156 -12.75 14.9375 C-12.76675781 13.62136719 -12.78351562 12.30523437 -12.80078125 10.94921875 C-12.42308487 7.10321363 -11.78586477 5.26932613 -9.4375 2.25 C-5.87784019 -0.12310654 -4.21787776 -0.01915041 0 0 Z " fill="#8F3384" transform="translate(27.4375,-0.25)"/>
<path d="M0 0 C6.26302083 -0.48177083 6.26302083 -0.48177083 9.2109375 1.4453125 C11.86737853 5.23857109 11.51056343 8.60859732 11.375 13.125 C11.37371094 13.94871094 11.37242188 14.77242187 11.37109375 15.62109375 C11.28127596 21.71872404 11.28127596 21.71872404 9 24 C5.9375 24.1875 5.9375 24.1875 3 24 C1.47080956 22.47080956 1.80305181 21.01646044 1.71875 18.88671875 C1.68136719 18.05076172 1.64398438 17.21480469 1.60546875 16.35351562 C1.57066406 15.47373047 1.53585938 14.59394531 1.5 13.6875 C1.4308297 11.96208532 1.35803846 10.23681118 1.28125 8.51171875 C1.25095703 7.74303467 1.22066406 6.97435059 1.18945312 6.18237305 C1.00237339 4.02733985 0.58389056 2.07937139 0 0 Z " fill="#8D3084" transform="translate(92,0)"/>
<path d="M0 0 C1.010625 0.0825 2.02125 0.165 3.0625 0.25 C5.18530563 3.43420845 5.34269537 4.45537255 5.4765625 8.13671875 C5.51523438 9.07451172 5.55390625 10.01230469 5.59375 10.97851562 C5.6246875 11.95498047 5.655625 12.93144531 5.6875 13.9375 C5.72617188 14.92556641 5.76484375 15.91363281 5.8046875 16.93164062 C5.89895867 19.37090707 5.98456218 21.81016595 6.0625 24.25 C-0.423813 24.61714979 -0.423813 24.61714979 -2.64746094 23.02783203 C-4.30358453 20.74549063 -4.29772616 19.41939718 -4.265625 16.6171875 C-4.26046875 15.72902344 -4.2553125 14.84085938 -4.25 13.92578125 C-4.229375 13.00152344 -4.20875 12.07726562 -4.1875 11.125 C-4.18234375 10.19300781 -4.1771875 9.26101563 -4.171875 8.30078125 C-4.07925654 0.34717077 -4.07925654 0.34717077 0 0 Z " fill="#8C2F82" transform="translate(3.9375,-0.25)"/>
</svg>
