<?xml version="1.0" encoding="UTF-8"?>
<svg version="1.1" xmlns="http://www.w3.org/2000/svg" width="400" height="344">
<path d="M0 0 C132 0 264 0 400 0 C400 99 400 198 400 300 C395.57403241 301.47532253 391.43531118 302.6523587 386.90777588 303.65621948 C386.21706206 303.81028106 385.52634824 303.96434263 384.8147037 304.12307274 C382.51287047 304.63568434 380.21006164 305.14376511 377.90722656 305.65185547 C376.25077857 306.01976684 374.59439281 306.38795851 372.93806458 306.75640869 C368.44418075 307.75524076 363.94943684 308.75015149 359.45452976 309.74436712 C354.73388898 310.78921815 350.01405262 311.83769035 345.29412842 312.88577271 C336.33838747 314.87386454 327.3819325 316.85871999 318.42521548 318.84240925 C308.30178917 321.0846541 298.1791458 323.33042314 288.05657625 325.57653213 C270.71326515 329.42480348 253.36940931 333.2706107 236.02479553 337.11300659 C235.29032149 337.27590817 234.55584744 337.43880974 233.79911661 337.60664773 C232.35687552 337.92584737 230.9143364 338.24370373 229.47148657 338.56014037 C225.72409962 339.38407401 221.98638639 340.23717738 218.25521088 341.13187027 C206.12699838 344.00914445 196.59974472 344.7127458 184.34643555 341.88305664 C183.32607586 341.65645638 182.30571617 341.42985613 181.25443649 341.1963892 C177.87954038 340.44430235 174.50823383 339.67724496 171.13671875 338.91015625 C168.73540823 338.37207923 166.33387819 337.83498111 163.93214417 337.29879761 C158.82832569 336.15731279 153.72595067 335.00961173 148.62487793 333.85592651 C140.67564583 332.05814149 132.72336506 330.27410143 124.77050781 328.49243164 C122.10865385 327.8959446 119.4468228 327.29935543 116.78500366 326.70271301 C116.12683997 326.55519559 115.46867628 326.40767816 114.79056823 326.25569052 C110.13469567 325.21193087 105.47931154 324.16601079 100.8241272 323.1191864 C84.94447946 319.54894354 69.05799188 316.01183863 53.16015625 312.5234375 C52.23731527 312.32079473 51.3144743 312.11815197 50.36366844 311.90936852 C42.67912668 310.22200137 34.99418136 308.5364923 27.30770874 306.85794067 C23.50526897 306.02749178 19.7035612 305.19377241 15.90238762 304.35754776 C14.53676189 304.05785653 13.17083827 303.75951904 11.80459785 303.46264267 C9.97740528 303.06557528 8.15126334 302.66368197 6.32519531 302.26147461 C5.31241516 302.04011337 4.29963501 301.81875214 3.25616455 301.59068298 C1 301 1 301 0 300 C-0.09705965 298.39966287 -0.12371614 296.79501859 -0.12304783 295.19174099 C-0.1250387 294.144401 -0.12702957 293.097061 -0.12908077 292.01798344 C-0.12616811 290.85394206 -0.12325544 289.68990068 -0.12025452 288.49058533 C-0.12153854 286.65616379 -0.12153854 286.65616379 -0.12284851 284.78468323 C-0.12422188 281.36786718 -0.1210623 277.95110762 -0.11607273 274.53429835 C-0.1117247 270.80152198 -0.11316611 267.06874718 -0.11389065 263.33596897 C-0.11442363 256.08080763 -0.10979348 248.82565861 -0.10338932 241.57050044 C-0.09620674 233.18343298 -0.09539553 224.79637298 -0.09460449 216.40930176 C-0.089348 194.25203254 -0.07538697 172.09476609 -0.0625 149.9375 C-0.041875 100.458125 -0.02125 50.97875 0 0 Z " fill="#6A0812" transform="translate(0,0)"/>
<path d="M0 0 C5.24852231 1.81679618 7.94302291 4.50444546 11 9 C11.3125 11.875 11.3125 11.875 11 14 C11.66 14 12.32 14 13 14 C13 12.989375 13 11.97875 13 10.9375 C13.67302196 6.41995534 16.13356494 4.10003972 19.6171875 1.328125 C23.7431204 -0.97157531 27.44378937 -0.94828449 32 0 C36.02444885 1.54159366 38.57094175 3.35641263 41 7 C41.64039015 11.1167938 41.14740698 12.75125073 39 16.375 C35.55452865 19.38978743 35.55452865 19.38978743 31.8125 19.4375 C28 19 28 19 26 18 C26 17.34 26 16.68 26 16 C26.66 15.566875 27.32 15.13375 28 14.6875 C30.28518201 13.1489525 30.28518201 13.1489525 30.3125 10.375 C30.25156054 8.04862094 30.25156054 8.04862094 29 7 C24.92686017 6.37966585 24.92686017 6.37966585 21 7 C17.77552759 9.88667054 16.20601559 13.2635829 15.69921875 17.53515625 C15.68884989 19.71607246 15.77414623 21.83180382 16 24 C16.69480469 23.5153125 17.38960938 23.030625 18.10546875 22.53125 C23.17069467 19.8516703 28.41971953 20.2788768 34 21 C40.10472336 23.33246506 43.90640302 27.54556499 47.25 33.0625 C48 35 48 35 48 39 C48.51949219 38.51789063 49.03898437 38.03578125 49.57421875 37.5390625 C55.42574715 32.23915692 59.59250883 29.41950022 67.65625 29.62109375 C73.10658122 30.50223063 76.79162566 33.73120695 80.5 37.625 C82.89051191 43.0036518 83.11128998 48.52877961 81.3046875 54.171875 C79.1516739 58.69501282 76.21837964 62.81497648 73.3671875 66.921875 C72.06925815 68.89472761 71.03595183 70.88163614 70 73 C66.89567435 72.85709764 63.79157209 72.71073438 60.6875 72.5625 C59.82576172 72.52318359 58.96402344 72.48386719 58.07617188 72.44335938 C53.68919994 72.23134958 49.33290452 71.94562611 44.96411133 71.49072266 C38.67954968 70.91180906 32.43284439 70.83824086 26.125 70.83203125 C24.92045166 70.82870285 23.71590332 70.82537445 22.47485352 70.82194519 C19.93685281 70.81690899 17.39884555 70.81453584 14.86083984 70.81469727 C11.03862175 70.81252198 7.21669803 70.79436103 3.39453125 70.77539062 C-8.84109298 70.7482176 -20.84543494 70.96760641 -32.984375 72.5690918 C-37.26050772 73.08472398 -41.71882494 73.59498264 -46 73 C-48.234375 70.65625 -48.234375 70.65625 -49.75 67.5 C-50.30300781 66.3965625 -50.85601562 65.293125 -51.42578125 64.15625 C-51.94527344 63.1146875 -52.46476563 62.073125 -53 61 C-53.96266599 59.65470474 -54.93959088 58.31936444 -55.9375 57 C-59.05836777 52.00661157 -59.06610149 46.67318294 -58 41 C-55.84305369 36.25319914 -53.07903969 33.63943092 -48.625 31 C-41.71391926 29.09349497 -37.03802606 29.36221051 -30.83203125 32.77734375 C-28.15230281 34.56573395 -26.13788322 36.59488138 -24 39 C-23.979375 38.01 -23.95875 37.02 -23.9375 36 C-23.18963206 30.74355676 -19.77287718 27.48991139 -16 24 C-10.64045849 20.01150399 -4.42466281 20.31540478 2 21 C4.36294018 21.76139183 5.91981736 22.61321157 8 24 C8.62637267 17.98682234 8.13083876 13.52354234 4.640625 8.46875 C2.59836745 6.64044324 1.46362629 6.47654498 -1.25 6.4375 C-4.78620861 6.58807825 -4.78620861 6.58807825 -6 8 C-6.04080783 9.99958364 -6.04254356 12.00045254 -6 14 C-4.68 14.66 -3.36 15.32 -2 16 C-2 16.66 -2 17.32 -2 18 C-5.24441291 19.62220646 -8.50540703 19.70159132 -12 19 C-15.28826203 16.12277073 -16.74931432 14.22835983 -17.625 9.9375 C-15.75462463 1.14673577 -7.75116635 -0.8376046 0 0 Z " fill="#CCAE3C" transform="translate(188,59)"/>
<path d="M0 0 C0 4.95 0 9.9 0 15 C-4.42596759 16.47532253 -8.56468882 17.6523587 -13.09222412 18.65621948 C-13.78293794 18.81028106 -14.47365176 18.96434263 -15.1852963 19.12307274 C-17.48712953 19.63568434 -19.78993836 20.14376511 -22.09277344 20.65185547 C-23.74922143 21.01976684 -25.40560719 21.38795851 -27.06193542 21.75640869 C-31.55581925 22.75524076 -36.05056316 23.75015149 -40.54547024 24.74436712 C-45.26611102 25.78921815 -49.98594738 26.83769035 -54.70587158 27.88577271 C-63.66161253 29.87386454 -72.6180675 31.85871999 -81.57478452 33.84240925 C-91.69821083 36.0846541 -101.8208542 38.33042314 -111.94342375 40.57653213 C-129.28673485 44.42480348 -146.63059069 48.2706107 -163.97520447 52.11300659 C-164.70967851 52.27590817 -165.44415256 52.43880974 -166.20088339 52.60664773 C-167.64312448 52.92584737 -169.0856636 53.24370373 -170.52851343 53.56014037 C-174.27590038 54.38407401 -178.01361361 55.23717738 -181.74478912 56.13187027 C-193.87300162 59.00914445 -203.40025528 59.7127458 -215.65356445 56.88305664 C-216.67392414 56.65645638 -217.69428383 56.42985613 -218.74556351 56.1963892 C-222.12045962 55.44430235 -225.49176617 54.67724496 -228.86328125 53.91015625 C-231.26459177 53.37207923 -233.66612181 52.83498111 -236.06785583 52.29879761 C-241.17167431 51.15731279 -246.27404933 50.00961173 -251.37512207 48.85592651 C-259.32435417 47.05814149 -267.27663494 45.27410143 -275.22949219 43.49243164 C-277.89134615 42.8959446 -280.5531772 42.29935543 -283.21499634 41.70271301 C-283.87316003 41.55519559 -284.53132372 41.40767816 -285.20943177 41.25569052 C-289.86530433 40.21193087 -294.52068846 39.16601079 -299.1758728 38.1191864 C-315.05552054 34.54894354 -330.94200812 31.01183863 -346.83984375 27.5234375 C-348.22410522 27.21947335 -348.22410522 27.21947335 -349.63633156 26.90936852 C-357.32087332 25.22200137 -365.00581864 23.5364923 -372.69229126 21.85794067 C-376.49473103 21.02749178 -380.2964388 20.19377241 -384.09761238 19.35754776 C-385.46323811 19.05785653 -386.82916173 18.75951904 -388.19540215 18.46264267 C-390.02259472 18.06557528 -391.84873666 17.66368197 -393.67480469 17.26147461 C-394.68758484 17.04011337 -395.70036499 16.81875214 -396.74383545 16.59068298 C-399 16 -399 16 -400 15 C-400.07271741 12.64686445 -400.08370868 10.29166332 -400.0625 7.9375 C-400.05347656 6.64714844 -400.04445313 5.35679687 -400.03515625 4.02734375 C-400.02355469 3.02832031 -400.01195312 2.02929688 -400 1 C-391.43103693 1.54841364 -383.30232458 3.41508911 -374.98132324 5.4067688 C-370.65264799 6.44166227 -366.31864665 7.4536854 -361.984375 8.46484375 C-361.08285706 8.67535873 -360.18133911 8.88587372 -359.25250244 9.10276794 C-349.44491716 11.38099394 -339.60018155 13.47772371 -329.75 15.5625 C-316.97437907 18.27038889 -304.22302305 21.05467921 -291.5 24 C-276.74124352 27.41544537 -261.94259848 30.62360312 -247.12329102 33.76538086 C-239.2877406 35.428189 -231.45758841 37.10192542 -223.65234375 38.90234375 C-222.41613281 39.18577637 -221.17992187 39.46920898 -219.90625 39.76123047 C-217.68682628 40.27390985 -215.46916865 40.79433516 -213.25390625 41.32470703 C-212.28195313 41.54884277 -211.31 41.77297852 -210.30859375 42.00390625 C-209.49189209 42.19799072 -208.67519043 42.3920752 -207.83374023 42.59204102 C-200.76160172 43.61018037 -194.23128077 42.90515977 -187.3046875 41.34765625 C-186.49204941 41.17254517 -185.67941132 40.99743408 -184.84214783 40.8170166 C-182.18431406 40.24145298 -179.52971884 39.65224965 -176.875 39.0625 C-174.99060227 38.65104412 -173.1060785 38.24016514 -171.22143555 37.82983398 C-158.27474888 34.99869179 -145.36063288 32.02997062 -132.45654297 29.01138306 C-116.54351279 25.29143002 -100.56988551 21.87896141 -84.57348633 18.53735352 C-74.40829262 16.40729583 -64.28757305 14.15395348 -54.19125366 11.71734619 C-47.81808173 10.18202959 -41.42888158 8.78355422 -35 7.5 C-26.09394113 5.68759285 -17.24804958 3.69171738 -8.421875 1.5234375 C-7.19597656 1.22373047 -7.19597656 1.22373047 -5.9453125 0.91796875 C-4.87047607 0.65149536 -4.87047607 0.65149536 -3.77392578 0.37963867 C-2 0 -2 0 0 0 Z " fill="#CAAA3B" transform="translate(400,285)"/>
<path d="M0 0 C6.26715388 -0.43221751 8.87770598 -0.02328238 14 4 C16.21830234 6.34090774 18.20420879 8.83389865 20.1875 11.375 C20.7455835 12.0760083 21.30366699 12.7770166 21.87866211 13.49926758 C23.59468334 15.65930961 25.29829377 17.82867026 27 20 C28.04909692 21.32972875 29.09856089 22.65916801 30.1484375 23.98828125 C31.99135716 26.32503942 33.82876157 28.66591919 35.66015625 31.01171875 C37.18086765 32.95386269 38.72920397 34.87479799 40.30859375 36.76953125 C42 39 42 39 42 41 C42.66 41 43.32 41 44 41 C43.93078785 36.285544 43.84266242 31.57194676 43.73754883 26.8581543 C43.70444408 25.25701481 43.67636779 23.65576268 43.65356445 22.05444336 C43.61975018 19.74284183 43.56742549 17.43225922 43.51171875 15.12109375 C43.50532883 14.41351425 43.4989389 13.70593475 43.49235535 12.97691345 C43.34534999 7.92544152 42.18674258 4.45749274 40 0 C41.77007714 -0.08114106 43.54122098 -0.13925505 45.3125 -0.1875 C46.29863281 -0.22230469 47.28476562 -0.25710937 48.30078125 -0.29296875 C51 0 51 0 52.64741516 1.14131165 C54.5846644 3.80343124 54.36048651 5.76004965 54.34057617 9.03198242 C54.34023628 10.89357246 54.34023628 10.89357246 54.33988953 12.79277039 C54.32456968 14.14700684 54.3089217 15.50123961 54.29296875 16.85546875 C54.28737251 18.2412317 54.28310254 19.62700059 54.28010559 21.01277161 C54.26865883 24.65762764 54.23919358 28.30212423 54.20599365 31.94683838 C54.17528885 35.66698342 54.16159941 39.38718661 54.14648438 43.10742188 C54.11432331 50.40511167 54.06312951 57.70250544 54 65 C47.32714844 65.26611328 47.32714844 65.26611328 44.3828125 62.87109375 C43.59648437 61.92363281 42.81015625 60.97617188 42 60 C41.17242187 59.06285156 40.34484375 58.12570313 39.4921875 57.16015625 C38.61670697 56.13021832 37.74443734 55.09754445 36.875 54.0625 C36.40416992 53.50401367 35.93333984 52.94552734 35.44824219 52.37011719 C30.14248128 46.03629909 25.06339827 39.52784633 20 33 C18.72414141 31.35923263 17.44809425 29.71861186 16.171875 28.078125 C14.5859375 26.0390625 14.5859375 26.0390625 13 24 C12.97522513 29.03539677 12.95710451 34.07075781 12.94506836 39.10620117 C12.94004901 40.81812152 12.93323215 42.53003761 12.92456055 44.24194336 C12.91238979 46.70687922 12.90674762 49.17175825 12.90234375 51.63671875 C12.89718246 52.39836838 12.89202118 53.16001801 12.88670349 53.94474792 C12.88629377 57.85244751 13.22549471 61.12747357 14 65 C9.71 65 5.42 65 1 65 C1.00523682 63.1020166 1.01047363 61.2040332 1.01586914 59.24853516 C1.0319773 52.98605493 1.0434771 46.72357959 1.05181217 40.46108437 C1.05703656 36.66317211 1.06412617 32.8652822 1.07543945 29.06738281 C1.08628408 25.40399327 1.09228019 21.74062527 1.09487724 18.07722092 C1.09672864 16.67774491 1.10034382 15.27827012 1.10573006 13.87880325 C1.11296126 11.92263178 1.11340823 9.96643874 1.11352539 8.01025391 C1.115746 6.8955069 1.11796661 5.78075989 1.12025452 4.63223267 C1.17939149 2.02050967 1.17939149 2.02050967 0 0 Z " fill="#FBF9F9" transform="translate(303,173)"/>
<path d="M0 0 C1.05900513 0.00132935 1.05900513 0.00132935 2.1394043 0.00268555 C8.73878421 0.15279268 12.69973204 1.63478563 17.84375 5.75 C19.125 7.375 19.125 7.375 19.19921875 9.41796875 C18.84114583 11.40364583 18.48307292 13.38932292 18.125 15.375 C17.63 15.106875 17.135 14.83875 16.625 14.5625 C8.45904848 10.68367303 0.81865192 8.36547579 -8.0625 11.5 C-10.10287223 13.31475215 -10.10287223 13.31475215 -10.6875 16.25 C-10.13646258 19.6581666 -10.13646258 19.6581666 -6.875 21.75 C-3.9649177 23.36671239 -0.97839775 24.81965746 2.0078125 26.2890625 C3.05195312 26.80460693 3.05195312 26.80460693 4.1171875 27.33056641 C5.51042773 28.01283308 6.90873514 28.68487375 8.3125 29.34521484 C14.56617291 32.35798869 20.15543329 35.80168792 23.125 42.375 C24.12205314 48.88728405 23.72097802 55.04541707 20.3125 60.76171875 C16.42525066 66.04275158 11.26950718 67.8248156 5.125 69.375 C1.75754464 69.79008392 -1.54761846 69.84102999 -4.9375 69.8125 C-5.78376953 69.83248047 -6.63003906 69.85246094 -7.50195312 69.87304688 C-14.04067366 69.86800546 -19.5860139 68.49645337 -24.4375 63.89208984 C-27.48713622 60.38869029 -28.72871297 57.66720214 -29.25 53.0625 C-28.74739265 48.12019437 -27.39487555 46.81487838 -23.875 43.375 C-21.42234106 41.66557104 -20.57446021 41.2584233 -17.625 41.75 C-17.0475 41.95625 -16.47 42.1625 -15.875 42.375 C-16.205 43.035 -16.535 43.695 -16.875 44.375 C-17.40599479 50.14710709 -17.40599479 50.14710709 -15.0625 55.25 C-11.71631321 58.50058145 -9.6644515 59.66629285 -5.0625 59.6875 C0.39467355 59.5839332 4.20654429 58.29345571 8.125 54.375 C8.78584853 50.27530263 8.78584853 50.27530263 8.125 46.375 C3.96295904 42.25143708 -0.54073587 39.82883912 -5.8125 37.375 C-18.67715472 31.35272586 -18.67715472 31.35272586 -22.8125 25.75 C-24.45663865 20.52744194 -25.42406699 14.5368816 -22.92578125 9.4375 C-17.14358645 2.14135514 -8.94026299 -0.02009999 0 0 Z " fill="#FBF8F8" transform="translate(66.875,169.625)"/>
<path d="M0 0 C7.86857143 -0.77142857 7.86857143 -0.77142857 11.75 1.875 C16.8344178 8.93669138 20.03022045 17.19289049 23.3203125 25.20703125 C23.89832108 26.59966438 23.89832108 26.59966438 24.48800659 28.02043152 C26.11679907 31.94487013 27.73724 35.87273868 29.35791016 39.80053711 C30.55051059 42.68737227 31.74776523 45.57224547 32.9453125 48.45703125 C33.3078714 49.34042679 33.6704303 50.22382233 34.04397583 51.13398743 C35.77892351 55.31106226 37.62679326 59.1380778 40 63 C40 63.66 40 64.32 40 65 C37.91781638 65.10832169 35.83400871 65.18573541 33.75 65.25 C32.58984375 65.29640625 31.4296875 65.3428125 30.234375 65.390625 C27 65 27 65 24.828125 63.609375 C23 61 23 61 19 51 C11.08 51 3.16 51 -5 51 C-6.67057063 55.17642656 -7.24868781 56.66895852 -7.125 60.8125 C-7.09792969 61.99779297 -7.09792969 61.99779297 -7.0703125 63.20703125 C-7.04710937 63.79871094 -7.02390625 64.39039063 -7 65 C-8.81242052 65.02687279 -10.62495233 65.04633715 -12.4375 65.0625 C-13.44683594 65.07410156 -14.45617187 65.08570313 -15.49609375 65.09765625 C-18 65 -18 65 -19 64 C-19.67947028 57.51390124 -17.61415225 52.70430954 -15.09765625 46.796875 C-14.70049911 45.83726868 -14.30334198 44.87766235 -13.89414978 43.88897705 C-12.62844044 40.8377093 -11.34593222 37.79384974 -10.0625 34.75 C-9.20262351 32.68798024 -8.34388703 30.62548468 -7.48632812 28.5625 C-6.28091398 25.66283895 -5.07385573 22.7640011 -3.85768127 19.86883545 C-3.49738327 19.0107428 -3.13708527 18.15265015 -2.76586914 17.26855469 C-2.44832169 16.51467468 -2.13077423 15.76079468 -1.80360413 14.98406982 C-0.34911332 11.39298409 0.11251207 8.66342914 0.0625 4.8125 C0.05347656 3.91144531 0.04445313 3.01039063 0.03515625 2.08203125 C0.02355469 1.39496094 0.01195312 0.70789063 0 0 Z " fill="#FAF7F7" transform="translate(258,173)"/>
<path d="M0 0 C2.12472576 -0.05386629 4.24983652 -0.09273071 6.375 -0.125 C7.55835937 -0.14820313 8.74171875 -0.17140625 9.9609375 -0.1953125 C13 0 13 0 15 2 C15.25828552 3.9085083 15.25828552 3.9085083 15.27124023 6.26269531 C15.28142685 7.14411194 15.29161346 8.02552856 15.30210876 8.93365479 C15.30424881 9.88882996 15.30638885 10.84400513 15.30859375 11.828125 C15.33376244 13.84505486 15.35916034 15.86198188 15.38476562 17.87890625 C15.41347087 21.06298022 15.4374823 24.24700445 15.45629883 27.43115234 C15.47799981 30.50124526 15.51745429 33.57073993 15.55859375 36.640625 C15.55870956 37.58770325 15.55882538 38.53478149 15.5589447 39.51055908 C15.63713984 44.75155209 16.05786499 48.47336307 19 53 C22.67014888 56.23836665 26.13459175 56.46552311 30.84765625 56.28515625 C33.8966002 55.88121268 35.69222561 55.02804416 38 53 C40.60681263 48.29904027 40.28914968 43.50560086 40.265625 38.28125 C40.26753845 37.34575317 40.2694519 36.41025635 40.27142334 35.44641113 C40.27278143 33.47289765 40.26911128 31.49937511 40.26074219 29.52587891 C40.25003741 26.51053745 40.26065029 23.49579175 40.2734375 20.48046875 C40.27211584 18.55989452 40.26955331 16.63932066 40.265625 14.71875 C40.26967346 13.81966919 40.27372192 12.92058838 40.27789307 11.9942627 C40.24474605 7.55468066 40.09606949 4.03394505 38 0 C39.93559313 -0.13504138 41.873872 -0.23201129 43.8125 -0.3125 C44.89144531 -0.37050781 45.97039062 -0.42851562 47.08203125 -0.48828125 C50 0 50 0 51.65733337 2.19117737 C53.10515148 5.21997407 53.3824647 7.09652566 53.40063477 10.42944336 C53.42064293 12.02150856 53.42064293 12.02150856 53.4410553 13.64573669 C53.44117111 14.78229202 53.44128693 15.91884735 53.44140625 17.08984375 C53.45461411 18.2671254 53.46782196 19.44440704 53.48143005 20.65736389 C53.52230664 24.4174333 53.54398849 28.17725875 53.5625 31.9375 C53.58631093 35.6940958 53.6144819 39.4504626 53.65428162 43.20692444 C53.67857148 45.54297417 53.69348456 47.87914492 53.69789124 50.21531677 C53.74862429 55.5170594 53.83119038 60.05498448 56 65 C54.25034642 65.05429959 52.50020213 65.09292823 50.75 65.125 C49.77546875 65.14820313 48.8009375 65.17140625 47.796875 65.1953125 C45 65 45 65 42.8203125 63.90625 C42.21960938 63.6071875 41.61890625 63.308125 41 63 C39.43749964 63.74728278 37.87552854 64.49569461 36.31640625 65.25 C29.54466457 67.44253693 20.28466785 67.14274713 13.74609375 64.17578125 C8.10373533 60.37634079 4.74548903 55.50828512 3 49 C2.7002326 45.73996609 2.67563557 42.4910641 2.65625 39.21875 C2.6416272 38.28703979 2.62700439 37.35532959 2.61193848 36.39538574 C2.54997565 32.42860211 2.5101557 28.46166696 2.46826172 24.49462891 C2.434415 21.59000807 2.38933423 18.68570656 2.34375 15.78125 C2.3384729 14.89046753 2.3331958 13.99968506 2.32775879 13.08190918 C2.2520173 8.33294038 1.82864166 4.46392964 0 0 Z " fill="#FBF8F8" transform="translate(96,173)"/>
<path d="M0 0 C0.7067688 0.00358521 1.4135376 0.00717041 2.14172363 0.01086426 C10.60800561 0.07333751 19.06930227 0.3305836 27.53125 0.59375 C29.14452473 0.64214499 30.75780598 0.69032305 32.37109375 0.73828125 C36.25789184 0.85428377 40.14459122 0.97317379 44.03125 1.09375 C44.2421875 7.7265625 44.2421875 7.7265625 42.34375 11.03125 C37.19685514 14.23592038 31.94387955 13.6397712 26.03125 13.09375 C25.04125 12.76375 24.05125 12.43375 23.03125 12.09375 C23.14929688 18.65922108 23.27411683 25.2245388 23.40356445 31.78979492 C23.44677824 34.02153633 23.48846245 36.25330793 23.52856445 38.48510742 C23.58659656 41.69979939 23.65019498 44.91434136 23.71484375 48.12890625 C23.73155624 49.12084488 23.74826874 50.11278351 23.76548767 51.13478088 C23.7954055 52.54545082 23.7954055 52.54545082 23.82592773 53.98461914 C23.84924416 55.21372765 23.84924416 55.21372765 23.87303162 56.46766663 C24.06739351 59.69365419 24.57419919 62.8943943 25.03125 66.09375 C18.76125 66.09375 12.49125 66.09375 6.03125 66.09375 C7.02125 63.45375 8.01125 60.81375 9.03125 58.09375 C9.48299826 55.40141615 9.48299826 55.40141615 9.46362305 52.87109375 C9.48341721 51.93072266 9.50321136 50.99035156 9.52360535 50.02148438 C9.52999527 49.03470703 9.53638519 48.04792969 9.54296875 47.03125 C9.56091995 45.99935547 9.57887115 44.96746094 9.59736633 43.90429688 C9.65120456 40.63415516 9.68528022 37.36415719 9.71875 34.09375 C9.75194642 31.86586553 9.78643821 29.63799996 9.82226562 27.41015625 C9.90691554 21.97148315 9.97537667 16.53279082 10.03125 11.09375 C7.15549132 11.20829804 4.28112888 11.3350347 1.40625 11.46875 C0.59800781 11.4996875 -0.21023437 11.530625 -1.04296875 11.5625 C-5.68713314 11.7890446 -9.59568856 12.3530168 -13.96875 14.09375 C-14.58239554 6.85273264 -14.58239554 6.85273264 -11.59375 3.15625 C-7.44815234 -0.1010053 -5.26254637 -0.02881434 0 0 Z " fill="#F8F4F4" transform="translate(202.96875,171.90625)"/>
<path d="M0 0 C0 3.20395416 -0.74335022 5.09399739 -2 8 C-0.68 8.33 0.64 8.66 2 9 C1.505 6.03 1.505 6.03 1 3 C1.99 3.33 2.98 3.66 4 4 C4.8125 5.875 4.8125 5.875 5 8 C4.34 8.99 3.68 9.98 3 11 C5.31 11.33 7.62 11.66 10 12 C9.7525 11.1028125 9.7525 11.1028125 9.5 10.1875 C9 8 9 8 9 5 C9.99 5.66 10.98 6.32 12 7 C11.67 8.65 11.34 10.3 11 12 C11.763125 11.62875 12.52625 11.2575 13.3125 10.875 C14.199375 10.58625 15.08625 10.2975 16 10 C16.99 10.66 17.98 11.32 19 12 C18.814375 11.195625 18.62875 10.39125 18.4375 9.5625 C18.293125 8.716875 18.14875 7.87125 18 7 C18.33 6.67 18.66 6.34 19 6 C18.01 5.67 17.02 5.34 16 5 C16 3.68 16 2.36 16 1 C11.05 1 6.1 1 1 1 C1 0.67 1 0.34 1 0 C10.24 0 19.48 0 29 0 C28.67 2.97 28.34 5.94 28 9 C30.97 8.505 30.97 8.505 34 8 C33.01 6.02 32.02 4.04 31 2 C32.95349121 0.04650879 36.52994407 0.83088969 39.15185547 0.81054688 C40.13299316 0.81119141 41.11413086 0.81183594 42.125 0.8125 C43.11516113 0.81185547 44.10532227 0.81121094 45.12548828 0.81054688 C53.23102218 0.86830291 61.01713338 1.60735037 69 3 C70.305239 6.91571701 69.32239848 8.03892997 67.5625 11.6875 C67.08941406 12.68136719 66.61632812 13.67523438 66.12890625 14.69921875 C65.75636719 15.45847656 65.38382812 16.21773437 65 17 C63.74058594 16.855625 62.48117188 16.71125 61.18359375 16.5625 C46.07331871 15.02015871 31.05329261 14.80186691 15.875 14.8125 C14.35131302 14.81141235 14.35131302 14.81141235 12.79684448 14.81030273 C2.17450055 14.81115876 -8.36672094 14.96341677 -18.9609375 15.77954102 C-22.63668809 16.04618648 -26.25314333 16.10048306 -29.9375 16.0625 C-31.10152344 16.05347656 -32.26554688 16.04445312 -33.46484375 16.03515625 C-34.30144531 16.02355469 -35.13804687 16.01195312 -36 16 C-36.69906942 14.40084119 -37.38389468 12.79544955 -38.0625 11.1875 C-38.44535156 10.29417969 -38.82820312 9.40085938 -39.22265625 8.48046875 C-40 6 -40 6 -39 3 C-26.25222899 0.10788455 -13.02956057 -0.2101542 0 0 Z " fill="#CEB13C" transform="translate(185,134)"/>
<path d="M0 0 C6.93 0 13.86 0 21 0 C20.01 1.98 19.02 3.96 18 6 C17.57630894 8.53534638 17.57630894 8.53534638 17.65942383 11.08740234 C17.65965042 12.04794525 17.65987701 13.00848816 17.66011047 13.99813843 C17.67559433 15.01711212 17.69107819 16.03608582 17.70703125 17.0859375 C17.71339851 18.67131821 17.71339851 18.67131821 17.71989441 20.28872681 C17.73663298 23.6510814 17.77427711 27.01282779 17.8125 30.375 C17.82755303 32.66014757 17.84124036 34.94530457 17.85351562 37.23046875 C17.8865207 42.8205186 17.93667228 48.41021584 18 54 C20.5419589 54.05434116 23.08273682 54.0938339 25.625 54.125 C26.33785156 54.14175781 27.05070312 54.15851563 27.78515625 54.17578125 C33.83781474 54.23131023 38.64441792 52.88377497 44 50 C44.44811859 58.81299886 44.44811859 58.81299886 41 63 C37.20260397 65.69481258 32.97450838 65.25367187 28.515625 65.1953125 C27.70003113 65.1924826 26.88443726 65.18965271 26.04412842 65.18673706 C23.44593472 65.17556558 20.84808905 65.15046675 18.25 65.125 C16.48568207 65.11496627 14.72135872 65.10584111 12.95703125 65.09765625 C8.63788727 65.07563619 4.31900259 65.04112733 0 65 C1.875 60.25 1.875 60.25 3 58 C3.10545281 56.36742914 3.1487386 54.73065269 3.16113281 53.09472656 C3.17074036 52.07316467 3.1803479 51.05160278 3.19024658 49.99908447 C3.19449646 48.89079285 3.19874634 47.78250122 3.203125 46.640625 C3.20882507 45.5034906 3.21452515 44.3663562 3.22039795 43.19476318 C3.22985845 40.78382297 3.23638608 38.37286977 3.24023438 35.96191406 C3.24992353 32.27906578 3.28093104 28.59677931 3.3125 24.9140625 C3.31903156 22.57291998 3.32428143 20.23177347 3.328125 17.890625 C3.3404718 16.7904303 3.3528186 15.6902356 3.36553955 14.55670166 C3.36253845 13.52253113 3.35953735 12.4883606 3.35644531 11.42285156 C3.36009094 10.51843323 3.36373657 9.61401489 3.36749268 8.68218994 C3.05001999 5.29588735 3.05001999 5.29588735 0 0 Z " fill="#FAF7F7" transform="translate(161,173)"/>
<path d="M0 0 C4.59125258 0.12629659 7.28369864 1.38311979 10.55859375 4.58203125 C12.49137305 7.53840083 12.52439488 10.0138548 12.25390625 13.47265625 C11.69158014 16.05537529 10.459324 17.45793825 8.8125 19.5 C8.25147042 22.17527995 8.0402515 24.76698199 7.8125 27.5 C3.1925 27.5 -1.4275 27.5 -6.1875 27.5 C-6.1875 0.2555938 -6.1875 0.2555938 0 0 Z " fill="#6A0B12" transform="translate(209.1875,89.5)"/>
<path d="M0 0 C3.51449145 0.01678897 4.38059167 0.07296179 7.25 2.3125 C7.724375 2.9725 8.19875 3.6325 8.6875 4.3125 C8.3575 4.6425 8.0275 4.9725 7.6875 5.3125 C7.60049658 6.94722882 7.58048937 8.58564055 7.58984375 10.22265625 C7.59467773 11.70668945 7.59467773 11.70668945 7.59960938 13.22070312 C7.60798828 14.26162109 7.61636719 15.30253906 7.625 16.375 C7.62951172 17.41978516 7.63402344 18.46457031 7.63867188 19.54101562 C7.65050073 22.13153454 7.66843681 24.72202422 7.6875 27.3125 C3.0675 27.3125 -1.5525 27.3125 -6.3125 27.3125 C-6.415625 26.095625 -6.51875 24.87875 -6.625 23.625 C-6.97218787 20.70964303 -7.28392998 19.35821203 -8.875 16.8125 C-10.88256759 13.32107811 -11.19490241 10.24753776 -10.3125 6.3125 C-7.875 3.375 -7.875 3.375 -5.3125 1.3125 C-3.74308802 -0.25691198 -2.17115006 0.0675153 0 0 Z " fill="#690911" transform="translate(189.3125,89.6875)"/>
<path d="M0 0 C1.09505859 0.00902344 2.19011719 0.01804688 3.31835938 0.02734375 C5.98331354 0.05061846 8.64778134 0.08330865 11.3125 0.125 C11.3125 0.455 11.3125 0.785 11.3125 1.125 C7.3525 1.125 3.3925 1.125 -0.6875 1.125 C0.56791557 3.63583114 1.81313488 3.99625446 4.3125 5.125 C3.73665568 7.51064077 3.09022405 9.79182784 2.3125 12.125 C5.2825 12.62 5.2825 12.62 8.3125 13.125 C8.3125 13.455 8.3125 13.785 8.3125 14.125 C-1.38928229 14.8859241 -10.95225712 15.26000337 -20.6875 15.125 C-21.38656942 13.52584119 -22.07139468 11.92044955 -22.75 10.3125 C-23.13285156 9.41917969 -23.51570312 8.52585938 -23.91015625 7.60546875 C-24.6875 5.125 -24.6875 5.125 -23.6875 2.125 C-15.70844584 0.36203549 -8.15592799 -0.12985556 0 0 Z " fill="#CCAF3C" transform="translate(169.6875,134.875)"/>
<path d="M0 0 C0.79470703 0.03544922 1.58941406 0.07089844 2.40820312 0.10742188 C6.98884098 0.36127029 10.87237379 0.98507501 15.1875 2.6875 C14.73304036 4.10541408 14.27375056 5.52178046 13.8125 6.9375 C13.42964844 8.12085938 13.42964844 8.12085938 13.0390625 9.328125 C12.1875 11.6875 12.1875 11.6875 10.1875 15.6875 C1.9375 15.0275 -6.3125 14.3675 -14.8125 13.6875 C-14.8125 13.3575 -14.8125 13.0275 -14.8125 12.6875 C-13.1625 12.6875 -11.5125 12.6875 -9.8125 12.6875 C-9.8125 11.6975 -9.8125 10.7075 -9.8125 9.6875 C-11.1325 9.0275 -12.4525 8.3675 -13.8125 7.6875 C-13.23665568 5.30185923 -12.59022405 3.02067216 -11.8125 0.6875 C-7.76091998 -0.66302667 -4.22365927 -0.24646453 0 0 Z " fill="#CBAD3B" transform="translate(239.8125,135.3125)"/>
<path d="M0 0 C3.55032985 3.1211429 5.14189643 6.07670949 6.91796875 10.43359375 C7.17683868 11.05999756 7.43570862 11.68640137 7.7024231 12.33178711 C8.53988941 14.36342009 9.36361937 16.40032489 10.1875 18.4375 C10.76150814 19.83582227 11.33662889 21.23368832 11.9128418 22.63110352 C12.78086301 24.73685444 13.64808792 26.84289664 14.51148987 28.95054626 C17.0474563 35.14071666 19.66372613 41.29476101 22.3125 47.4375 C22.88037231 48.75802368 22.88037231 48.75802368 23.4597168 50.10522461 C24.30526295 52.07067285 25.1524105 54.03543208 26 56 C26.99 55.505 26.99 55.505 28 55 C28 55.66 28 56.32 28 57 C32.29 57 36.58 57 41 57 C40.34 55.35 39.68 53.7 39 52 C38.83414292 49.10427801 38.76658499 46.31009798 38.8046875 43.41796875 C38.8075174 42.60378983 38.81034729 41.7896109 38.81326294 40.95075989 C38.82441416 38.362854 38.84950917 35.77530042 38.875 33.1875 C38.88503635 31.42773939 38.89416106 29.66797333 38.90234375 27.90820312 C38.9243369 23.60533402 38.95883164 19.30272664 39 15 C39.33 15 39.66 15 40 15 C40.495 18.465 40.495 18.465 41 22 C41.66 22 42.32 22 43 22 C43.01458252 22.77077881 43.02916504 23.54155762 43.04418945 24.33569336 C43.11923166 27.87010173 43.21570647 31.40362307 43.3125 34.9375 C43.34633789 36.75604492 43.34633789 36.75604492 43.38085938 38.61132812 C43.70659438 50.92925434 43.70659438 50.92925434 50 61 C36.8 61 23.6 61 10 61 C9.67 60.34 9.34 59.68 9 59 C16.92 58.505 16.92 58.505 25 58 C24.01644531 56.0921875 23.03289062 54.184375 22.01953125 52.21875 C17.86324454 43.99496341 14.28977951 35.53955892 10.74584961 27.03808594 C9.67649173 24.47360047 8.59954036 21.91240207 7.52148438 19.3515625 C6.83029004 17.70330908 6.1395191 16.05487803 5.44921875 14.40625 C5.13152023 13.64993286 4.81382172 12.89361572 4.48649597 12.11437988 C2.82429673 8.11985908 1.30866065 4.12841095 0 0 Z " fill="#9D6033" transform="translate(276,181)"/>
<path d="M0 0 C-0.66 1.32 -1.32 2.64 -2 4 C-2.99 3.67 -3.98 3.34 -5 3 C-7.71139016 2.66654274 -10.29716588 2.56642036 -13 3 C-15.05270463 4.84188612 -15.05270463 4.84188612 -16 7 C-15.67 7.33 -15.34 7.66 -15 8 C-14.67 7.67 -14.34 7.34 -14 7 C-8.60875168 6.64058345 -5.45303222 6.62649074 -1 10 C0 11 0 11 0.375 14.3125 C0 18 0 18 -1.875 20.4375 C-6.32352881 22.6617644 -10.12343573 22.87138607 -15 22 C-18.125 20.25 -18.125 20.25 -20 17 C-20.87519901 12.14909078 -21.18180221 7.4035902 -18.9609375 2.88671875 C-13.97056085 -2.95397347 -6.82339252 -1.76087549 0 0 Z " fill="#CAAA3B" transform="translate(246,267)"/>
<path d="M0 0 C4.73344387 1.47283283 7.10371245 5.9985823 9.37109375 10.12109375 C10.17528464 13.33785732 10.12553397 16.32036819 9.99609375 19.62109375 C9.00609375 19.29109375 8.01609375 18.96109375 6.99609375 18.62109375 C1.49715765 18.11226963 1.49715765 18.11226963 -3.37890625 20.12109375 C-3.91515625 20.61609375 -4.45140625 21.11109375 -5.00390625 21.62109375 C-5.66390625 21.62109375 -6.32390625 21.62109375 -7.00390625 21.62109375 C-10.19358211 16.93625733 -11.74904361 13.44263754 -11.4453125 7.7109375 C-11.00390625 5.62109375 -11.00390625 5.62109375 -9.00390625 2.55859375 C-5.7232988 0.43986811 -3.85132788 -0.24025297 0 0 Z " fill="#6A0B12" transform="translate(151.00390625,98.37890625)"/>
<path d="M0 0 C4.4810569 2.1226059 4.4810569 2.1226059 6 5 C6.72233459 9.42359941 6.86638925 13.59491698 6 18 C4.11807722 20.30055458 2.64816149 21.67591925 0 23 C-1.81041793 23.09632897 -3.62452753 23.12981533 -5.4375 23.125 C-6.40558594 23.12757813 -7.37367188 23.13015625 -8.37109375 23.1328125 C-11 23 -11 23 -14 22 C-13.67 20.68 -13.34 19.36 -13 18 C-12.505 18.33 -12.01 18.66 -11.5 19 C-7.78330061 20.48667975 -5.0058044 20.31792098 -1 20 C1.07006533 18.8511303 1.07006533 18.8511303 2 17 C2 16.01 2 15.02 2 14 C1.01 14.495 1.01 14.495 0 15 C-4.79813395 15.65986125 -8.01720676 15.64864354 -12.125 12.9375 C-14 10 -14 10 -14.0625 6.375 C-13 3 -13 3 -11.5 1.0625 C-7.60931074 -0.59104294 -4.15153746 -0.70984837 0 0 Z " fill="#C29B37" transform="translate(186,266)"/>
<path d="M0 0 C3 1.9375 3 1.9375 5 5 C6.0236515 9.84649162 5.43247535 13.76425503 3 18.0625 C2.34 19.031875 1.68 20.00125 1 21 C-1 20 -3 19 -5 18 C-6.47765166 17.92990267 -7.95834814 17.91564061 -9.4375 17.9375 C-10.21996094 17.94652344 -11.00242188 17.95554687 -11.80859375 17.96484375 C-12.89333984 17.98224609 -12.89333984 17.98224609 -14 18 C-14.99 18 -15.98 18 -17 18 C-16.00782729 12.12529315 -14.76175885 7.78769309 -11 3 C-10.5875 2.38125 -10.175 1.7625 -9.75 1.125 C-6.6825987 -0.84690084 -3.44717185 -0.69077568 0 0 Z " fill="#6A0B11" transform="translate(255,99)"/>
<path d="M0 0 C4.60408143 -0.02506619 9.20812154 -0.04302973 13.81225586 -0.05493164 C15.37248427 -0.05990307 16.93270817 -0.06668257 18.49291992 -0.07543945 C28.05602403 -0.12769685 37.47289338 0.06963079 47 1 C47 1.33 47 1.66 47 2 C42.38 2.33 37.76 2.66 33 3 C33.66 3.99 34.32 4.98 35 6 C35 6.99 35 7.98 35 9 C32 11 32 11 29.8125 10.625 C29.214375 10.41875 28.61625 10.2125 28 10 C28.58929011 6.96936513 29.25044562 3.9982175 30 1 C23.565 1.495 23.565 1.495 17 2 C17 3.32 17 4.64 17 6 C18.32 6.33 19.64 6.66 21 7 C20.835 7.61875 20.67 8.2375 20.5 8.875 C19.92365356 10.96063386 19.92365356 10.96063386 20 13 C19.236875 12.814375 18.47375 12.62875 17.6875 12.4375 C14.91032625 11.77180827 14.91032625 11.77180827 12 13 C12.33 11.35 12.66 9.7 13 8 C12.01 8 11.02 8 10 8 C10.66 8.66 11.32 9.32 12 10 C11.67 10.99 11.34 11.98 11 13 C8.36 13 5.72 13 3 13 C3.66 11.02 4.32 9.04 5 7 C4.67 6.67 4.34 6.34 4 6 C3.67 7.65 3.34 9.3 3 11 C1.68 10.67 0.36 10.34 -1 10 C-1 6.71944932 -0.68367859 4.16201346 0 1 C0 0.67 0 0.34 0 0 Z " fill="#CBAD3B" transform="translate(184,133)"/>
<path d="M0 0 C3.80905906 0.21766052 4.99366389 0.99394549 7.8125 3.6875 C10 7 10 7 10.625 10.125 C9.79477585 13.94403111 8.15225171 14.82344525 5 17 C4.34 17.99 3.68 18.98 3 20 C-1.02009319 18.29919134 -3.96163341 16.10902627 -7 13 C-7.29881281 9.56365269 -6.60593666 7.82340981 -4.57421875 5.0625 C-3.10019695 3.31759591 -1.58790541 1.64132119 0 0 Z " fill="#CDAF3C" transform="translate(198,45)"/>
<path d="M0 0 C0.33 0 0.66 0 1 0 C1.62272262 11.65875128 1.62272262 11.65875128 -0.625 16.5 C-6.72655932 22.92269402 -12.99752122 27.62589155 -22.05639648 28.10986328 C-24.43433212 28.1699619 -26.80883156 28.18560162 -29.1875 28.1875 C-30.41629883 28.20586914 -30.41629883 28.20586914 -31.66992188 28.22460938 C-33.78126936 28.22982258 -35.89221809 28.12276321 -38 28 C-38.66 27.34 -39.32 26.68 -40 26 C-36.39253045 23.5950203 -33.66769574 23.71976431 -29.5 23.625 C-21.40376585 23.26980565 -13.54449235 22.37159029 -7.4375 16.5625 C-4.49863479 11.32365331 -3.60281214 6.92765268 -3 1 C-2.67 1 -2.34 1 -2 1 C-1.505 4.465 -1.505 4.465 -1 8 C-0.67 5.36 -0.34 2.72 0 0 Z " fill="#7F3626" transform="translate(93,215)"/>
<path d="M0 0 C2.23046875 0.8046875 2.23046875 0.8046875 4 2 C4.74439973 5.4118321 5 8.51394686 5 12 C5.33 12.33 5.66 12.66 6 13 C6.375 16.375 6.375 16.375 6 20 C3.6585987 22.50287725 1.75994767 22.92936019 -1.60546875 23.2421875 C-6.62086928 23.36401909 -10.38495846 23.09850621 -15 21 C-14.34 19.68 -13.68 18.36 -13 17 C-12.154375 17.495 -11.30875 17.99 -10.4375 18.5 C-6.61997752 20.16582799 -4.12108352 20.39625803 0 20 C0.66 19.34 1.32 18.68 2 18 C2 16.68 2 15.36 2 14 C-2.455 13.01 -2.455 13.01 -7 12 C-7 11.01 -7 10.02 -7 9 C-3.535 8.505 -3.535 8.505 0 8 C0 6.68 0 5.36 0 4 C-5.53069113 3.56066743 -5.53069113 3.56066743 -10.5 5.5 C-10.995 5.995 -11.49 6.49 -12 7 C-12.66 5.68 -13.32 4.36 -14 3 C-9.58341023 -0.4192953 -5.38890687 -0.74230023 0 0 Z " fill="#CEB13D" transform="translate(213,266)"/>
<path d="M0 0 C0.66 0 1.32 0 2 0 C3.1721449 2.95619219 4.33677476 5.91528789 5.5 8.875 C5.83386719 9.71675781 6.16773438 10.55851563 6.51171875 11.42578125 C6.98544922 12.63427734 6.98544922 12.63427734 7.46875 13.8671875 C7.76201172 14.61081543 8.05527344 15.35444336 8.35742188 16.12060547 C9 18 9 18 9 20 C3.72 20 -1.56 20 -7 20 C-4.79757472 13.28260289 -2.44267356 6.63365662 0 0 Z " fill="#691015" transform="translate(264,193)"/>
<path d="M0 0 C0.66 0.33 1.32 0.66 2 1 C2.96859337 3.9057801 3.13488033 5.79448803 3.15771484 8.81933594 C3.16797699 9.7975531 3.17823914 10.77577026 3.18881226 11.78363037 C3.19611359 12.8398761 3.20341492 13.89612183 3.2109375 14.984375 C3.23901103 17.22136142 3.26767552 19.45834049 3.296875 21.6953125 C3.33809607 25.22167721 3.37498433 28.74790537 3.40136719 32.27441406 C3.4290388 35.67802297 3.47491654 39.08100788 3.5234375 42.484375 C3.52669037 43.5325238 3.52994324 44.58067261 3.53329468 45.6605835 C3.63226474 51.57989569 4.27968709 55.73269771 7 61 C7.33 61.99 7.66 62.98 8 64 C3.49646738 65.75747614 -0.17639811 66.19294408 -5 66 C-5.33 65.34 -5.66 64.68 -6 64 C-1.05 63.505 -1.05 63.505 4 63 C3.690625 62.236875 3.38125 61.47375 3.0625 60.6875 C1.51701553 56.7783334 0.86172894 53.79650667 0.79467773 49.6105957 C0.77473251 48.50968094 0.75478729 47.40876617 0.73423767 46.27449036 C0.71752518 45.08691635 0.70081268 43.89934235 0.68359375 42.67578125 C0.6524221 40.85097481 0.6524221 40.85097481 0.62062073 38.98930359 C0.55515283 35.09709404 0.49625285 31.20481615 0.4375 27.3125 C0.39431218 24.67642518 0.3506978 22.04035731 0.30664062 19.40429688 C0.19947422 12.93627049 0.09770255 6.46817589 0 0 Z " fill="#C4A038" transform="translate(150,176)"/>
<path d="M0 0 C0.495 0.99 0.495 0.99 1 2 C-1.88868349 5.3166366 -3.60594965 6.61790867 -8 7 C-9.7264859 7.01707701 -11.45312622 7.02122163 -13.1796875 7.015625 C-14.08187012 7.01336914 -14.98405273 7.01111328 -15.91357422 7.00878906 C-16.60209473 7.00588867 -17.29061523 7.00298828 -18 7 C-17.93093029 12.99609067 -17.84286915 18.99149684 -17.73754883 24.98706055 C-17.70438816 27.02474345 -17.67632888 29.06251624 -17.65356445 31.1003418 C-17.61985538 34.03733463 -17.56753126 36.97351023 -17.51171875 39.91015625 C-17.50532883 40.81459976 -17.4989389 41.71904327 -17.49235535 42.65089417 C-17.3658043 48.15150255 -16.64182538 52.13782667 -14 57 C-13.34 57.33 -12.68 57.66 -12 58 C-12 58.66 -12 59.32 -12 60 C-19.59 60 -27.18 60 -35 60 C-35 59.34 -35 58.68 -35 58 C-28.73 58 -22.46 58 -16 58 C-16.99 55.69 -17.98 53.38 -19 51 C-19.36076355 48.41188049 -19.36076355 48.41188049 -19.34057617 45.98266602 C-19.34034958 45.06224014 -19.34012299 44.14181427 -19.33988953 43.1934967 C-19.32440567 42.22343185 -19.30892181 41.253367 -19.29296875 40.25390625 C-19.28872391 39.24279282 -19.28447906 38.23167938 -19.28010559 37.18992615 C-19.26339754 33.98050599 -19.22575953 30.77172835 -19.1875 27.5625 C-19.17244301 25.37826432 -19.15875638 23.19401873 -19.14648438 21.00976562 C-19.11351991 15.6729602 -19.06339943 10.33652602 -19 5 C-18.04738281 4.97421875 -17.09476563 4.9484375 -16.11328125 4.921875 C-14.85902344 4.86515625 -13.60476562 4.8084375 -12.3125 4.75 C-11.07113281 4.70359375 -9.82976562 4.6571875 -8.55078125 4.609375 C-4.58408325 3.92862155 -2.87295664 2.74661246 0 0 Z " fill="#CDAD3C" transform="translate(248,182)"/>
<path d="M0 0 C-0.45445964 1.41791408 -0.91374944 2.83428046 -1.375 4.25 C-1.75785156 5.43335938 -1.75785156 5.43335938 -2.1484375 6.640625 C-3 9 -3 9 -5 13 C-10.28 12.67 -15.56 12.34 -21 12 C-21 11.67 -21 11.34 -21 11 C-17.535 10.505 -17.535 10.505 -14 10 C-14.20625 9.05125 -14.4125 8.1025 -14.625 7.125 C-14.74875 6.09375 -14.8725 5.0625 -15 4 C-14.34 3.34 -13.68 2.68 -13 2 C-10.875 2.375 -10.875 2.375 -9 3 C-9 2.67 -9 2.34 -9 2 C-9.66 1.34 -10.32 0.68 -11 0 C-3.375 -1.125 -3.375 -1.125 0 0 Z " fill="#C9A93A" transform="translate(255,138)"/>
<path d="M0 0 C3.55032985 3.1211429 5.14189643 6.07670949 6.91796875 10.43359375 C7.17679337 11.0598616 7.43561798 11.68612946 7.70228577 12.33137512 C8.53982967 14.36313341 9.36361408 16.40017016 10.1875 18.4375 C10.7622522 19.83801463 11.33810556 21.23807784 11.91503906 22.63769531 C12.78380152 24.74579585 13.65181195 26.85417037 14.51602173 28.96414185 C17.38232193 35.96038218 20.36838899 42.90325335 23.37182617 49.84155273 C23.87613159 51.01053101 23.87613159 51.01053101 24.390625 52.203125 C24.8242334 53.20327637 24.8242334 53.20327637 25.26660156 54.22363281 C25.9129587 55.78917694 26.46439698 57.39319094 27 59 C27.66 59 28.32 59 29 59 C29 59.66 29 60.32 29 61 C22.73 61 16.46 61 10 61 C9.67 60.34 9.34 59.68 9 59 C16.92 58.505 16.92 58.505 25 58 C24.01644531 56.0921875 23.03289062 54.184375 22.01953125 52.21875 C17.86324454 43.99496341 14.28977951 35.53955892 10.74584961 27.03808594 C9.67649173 24.47360047 8.59954036 21.91240207 7.52148438 19.3515625 C6.83029004 17.70330908 6.1395191 16.05487803 5.44921875 14.40625 C5.13152023 13.64993286 4.81382172 12.89361572 4.48649597 12.11437988 C2.82429673 8.11985908 1.30866065 4.12841095 0 0 Z " fill="#CAAA3B" transform="translate(276,181)"/>
<path d="M0 0 C4.09111525 3.00406847 7.13658514 6.42544435 10.1875 10.4375 C10.88999878 11.34653076 10.88999878 11.34653076 11.60668945 12.27392578 C13.07662419 14.17845634 14.53835525 16.08910303 16 18 C16.9785605 19.26999854 17.95771688 20.5395382 18.9375 21.80859375 C21.29775614 24.86775869 23.65082739 27.93231689 26 31 C25.67 31.66 25.34 32.32 25 33 C21.58735841 32.4379394 20.22479563 31.51800846 18.125 28.796875 C17.61453125 28.14589844 17.1040625 27.49492187 16.578125 26.82421875 C16.05734375 26.13972656 15.5365625 25.45523438 15 24.75 C14.47921875 24.08097656 13.9584375 23.41195312 13.421875 22.72265625 C12.40580002 21.41664069 11.39456506 20.10684237 10.38867188 18.79296875 C9.17622713 17.22753377 7.91970172 15.69644008 6.65625 14.171875 C4.77408222 11.70374933 4.59992582 9.99962912 4 7 C2.70055256 5.30678061 1.37073786 3.63604196 0 2 C0 1.34 0 0.68 0 0 Z " fill="#A87A30" transform="translate(318,174)"/>
<path d="M0 0 C2.97 0 5.94 0 9 0 C10.09658936 3.28976808 9.79953138 4.71303767 9 8 C10.65 8.33 12.3 8.66 14 9 C14 9.33 14 9.66 14 10 C16.97 10.495 16.97 10.495 20 11 C16.2632157 13.49118953 14.25548181 13.2065226 9.8125 13.125 C8.54019531 13.10695312 7.26789063 13.08890625 5.95703125 13.0703125 C4.49330078 13.03550781 4.49330078 13.03550781 3 13 C2.30093058 11.40084119 1.61610532 9.79544955 0.9375 8.1875 C0.55464844 7.29417969 0.17179688 6.40085938 -0.22265625 5.48046875 C-1 3 -1 3 0 0 Z " fill="#CFB33D" transform="translate(146,137)"/>
<path d="M0 0 C2.58487008 2.58487008 3.4351232 5.13364985 4.828125 8.51953125 C5.09961365 9.17394699 5.37110229 9.82836273 5.65081787 10.50260925 C6.52191777 12.60399676 7.38641161 14.70801563 8.25 16.8125 C9.37682634 19.54958505 10.50691951 22.28528832 11.640625 25.01953125 C11.91765259 25.68792023 12.19468018 26.3563092 12.48010254 27.04495239 C15.15077057 33.44325773 18.03697973 39.73150322 21 46 C19.68 46 18.36 46 17 46 C16.57944336 45.01410889 16.15888672 44.02821777 15.72558594 43.01245117 C14.28746593 39.65650458 12.82159194 36.3134816 11.34747314 32.97322083 C9.99321758 29.89850265 8.6514628 26.81837983 7.31005859 23.73803711 C6.60023123 22.11386972 5.88632428 20.49147949 5.16845703 18.87084961 C4.12754823 16.51871847 3.10148264 14.16059156 2.078125 11.80078125 C1.75426819 11.0778035 1.43041138 10.35482574 1.09674072 9.60993958 C-0.48351323 5.92528072 -1.23814866 3.82147362 0 0 Z " fill="#691914" transform="translate(281,194)"/>
<path d="M0 0 C2.87253727 3.21840346 3.38420648 5.31753549 3.43237305 9.59472656 C3.45216721 10.71558655 3.47196136 11.83644653 3.49235535 12.99127197 C3.49874527 14.19555847 3.50513519 15.39984497 3.51171875 16.640625 C3.52966995 17.87794373 3.54762115 19.11526245 3.56611633 20.39007568 C3.61110166 23.67142851 3.6434039 26.95258411 3.66955566 30.23413086 C3.69939179 33.58592522 3.74616068 36.93743543 3.79101562 40.2890625 C3.87604539 46.85926615 3.94435572 53.42948533 4 60 C1.74716128 58.23855564 1.05458213 57.34560882 0.60127258 54.47529602 C0.59016953 53.46935898 0.57906647 52.46342194 0.56762695 51.42700195 C0.54783279 50.28604568 0.52803864 49.14508942 0.50764465 47.96955872 C0.49805977 46.12257637 0.49805977 46.12257637 0.48828125 44.23828125 C0.47033005 42.97735153 0.45237885 41.71642181 0.43388367 40.4172821 C0.38884576 37.06844486 0.35657259 33.7199758 0.33044434 30.37097168 C0.30064234 26.95225714 0.2541109 23.5337749 0.20898438 20.11523438 C0.12388319 13.41026329 0.05560169 6.70527706 0 0 Z " fill="#5B0308" transform="translate(148,175)"/>
<path d="M0 0 C0.70125 0.00515625 1.4025 0.0103125 2.125 0.015625 C2.82625 0.01046875 3.5275 0.0053125 4.25 0 C6.125 0.265625 6.125 0.265625 8.125 2.265625 C8.375 5.265625 8.375 5.265625 8.125 8.265625 C6.125 10.265625 6.125 10.265625 2.6875 10.515625 C-0.875 10.265625 -0.875 10.265625 -3.875 8.265625 C-4.1875 5.265625 -4.1875 5.265625 -3.875 2.265625 C-1.875 0.265625 -1.875 0.265625 0 0 Z " fill="#670910" transform="translate(233.875,276.734375)"/>
<path d="M0 0 C5.97760631 5.97760631 5.97760631 5.97760631 6.02172852 11.93261719 C5.97459717 13.04282227 5.92746582 14.15302734 5.87890625 15.296875 C5.83056641 16.50214844 5.78222656 17.70742187 5.73242188 18.94921875 C5.67634766 20.20347656 5.62027344 21.45773438 5.5625 22.75 C5.51029297 24.01972656 5.45808594 25.28945312 5.40429688 26.59765625 C5.27468016 29.73202407 5.13971529 32.86606874 5 36 C2.63991183 32.45986775 2.76536356 30.98878045 2.8046875 26.80078125 C2.81113281 25.59228516 2.81757813 24.38378906 2.82421875 23.13867188 C2.84097656 21.87603516 2.85773438 20.61339844 2.875 19.3125 C2.88402344 18.03826172 2.89304687 16.76402344 2.90234375 15.45117188 C2.92594359 12.30059373 2.95886806 9.15039017 3 6 C2.34 6 1.68 6 1 6 C1 15.57 1 25.14 1 35 C0.67 35 0.34 35 0 35 C0 23.45 0 11.9 0 0 Z " fill="#62140D" transform="translate(316,197)"/>
<path d="M0 0 C0.99 0 1.98 0 3 0 C3 0.66 3 1.32 3 2 C4.32 2.33 5.64 2.66 7 3 C5.68 3 4.36 3 3 3 C3 17.52 3 32.04 3 47 C2.01 47 1.02 47 0 47 C0 31.49 0 15.98 0 0 Z " fill="#833223" transform="translate(226,184)"/>
<path d="M0 0 C6.6 0 13.2 0 20 0 C20 0.66 20 1.32 20 2 C13.73 2 7.46 2 1 2 C0.67 4.97 0.34 7.94 0 11 C1.65 12.98 3.3 14.96 5 17 C-0.61 17 -6.22 17 -12 17 C-12.33 16.34 -12.66 15.68 -13 15 C-8.71 15 -4.42 15 0 15 C-0.99 13.68 -1.98 12.36 -3 11 C-3.75887866 6.19376851 -2.39091195 4.78182389 0 0 Z " fill="#C6A43A" transform="translate(255,225)"/>
<path d="M0 0 C0.33 0 0.66 0 1 0 C1.49882898 4.1901634 1.19920015 5.71226646 -1.25 9.25 C-4.87238905 12.87238905 -6.50013509 13.9071322 -11.66699219 14.22705078 C-13.12699142 14.2267359 -14.58701588 14.21554172 -16.046875 14.1953125 C-17.20367767 14.19106766 -17.20367767 14.19106766 -18.3838501 14.18673706 C-20.83939332 14.17557013 -23.2945676 14.15047229 -25.75 14.125 C-27.41796347 14.11496568 -29.08593268 14.10584061 -30.75390625 14.09765625 C-34.83607897 14.07564225 -38.917977 14.04113667 -43 14 C-43 13.34 -43 12.68 -43 12 C-42.00145996 11.98541748 -41.00291992 11.97083496 -39.97412109 11.95581055 C-36.25013394 11.89759932 -32.52673708 11.82036923 -28.80322266 11.73754883 C-27.1952476 11.70440637 -25.58715919 11.67634146 -23.97900391 11.65356445 C-21.65999295 11.61982033 -19.34201069 11.56749806 -17.0234375 11.51171875 C-16.31069672 11.50532883 -15.59795593 11.4989389 -14.86361694 11.49235535 C-10.21228378 11.35700966 -6.95673974 10.45083879 -3 8 C-1.67698578 6.02081612 -1.67698578 6.02081612 -1.125 3.8125 C-0.75375 2.554375 -0.3825 1.29625 0 0 Z " fill="#BC9135" transform="translate(207,228)"/>
<path d="M0 0 C-5.31439154 1.49175903 -10.06896098 2.12783451 -15.59375 2.09375 C-16.23546646 2.09016479 -16.87718292 2.08657959 -17.53834534 2.08288574 C-26.34025067 2.01245746 -35.13924718 1.74901504 -43.9375 1.5 C-45.69986467 1.451636 -47.46223445 1.40345784 -49.22460938 1.35546875 C-53.48313466 1.23911406 -57.74158359 1.12027076 -62 1 C-62 0.67 -62 0.34 -62 0 C-60.70376709 -0.02505615 -59.40753418 -0.0501123 -58.07202148 -0.07592773 C-53.2431523 -0.17040481 -48.4144135 -0.27052574 -43.58569336 -0.37231445 C-41.49946146 -0.41551134 -39.41319767 -0.45719658 -37.3269043 -0.49731445 C-34.32070321 -0.55538798 -31.31466039 -0.61897393 -28.30859375 -0.68359375 C-27.38227646 -0.70030624 -26.45595917 -0.71701874 -25.50157166 -0.73423767 C-2.28626176 -1.2601835 -2.28626176 -1.2601835 0 0 Z " fill="#62040E" transform="translate(242,132)"/>
<path d="M0 0 C0.70125 0.00515625 1.4025 0.0103125 2.125 0.015625 C2.82625 0.01046875 3.5275 0.0053125 4.25 0 C6.125 0.265625 6.125 0.265625 8.125 2.265625 C8.375 4.765625 8.375 4.765625 8.125 7.265625 C6.125 9.265625 6.125 9.265625 4.25 9.53125 C3.54875 9.52609375 2.8475 9.5209375 2.125 9.515625 C1.42375 9.52078125 0.7225 9.5259375 0 9.53125 C-1.875 9.265625 -1.875 9.265625 -3.875 7.265625 C-4.125 4.765625 -4.125 4.765625 -3.875 2.265625 C-1.875 0.265625 -1.875 0.265625 0 0 Z " fill="#65060F" transform="translate(179.875,268.734375)"/>
<path d="M0 0 C0.62994873 0.49346924 1.25989746 0.98693848 1.90893555 1.49536133 C6.19688612 3.58260873 9.7630959 3.27553976 14.45703125 3.07421875 C15.35999435 3.04777786 16.26295746 3.02133698 17.19328308 2.99409485 C20.06704667 2.90657766 22.93951171 2.79734319 25.8125 2.6875 C27.76492796 2.62421563 29.71740247 2.56235045 31.66992188 2.50195312 C36.44731021 2.35107624 41.22365137 2.18072328 46 2 C45.67 2.66 45.34 3.32 45 4 C41.41167085 5.19610972 38.07891126 5.21094119 34.33984375 5.28125 C33.59416641 5.29965942 32.84848907 5.31806885 32.08021545 5.33703613 C28.89110537 5.41565749 25.70178773 5.48353392 22.51245117 5.55224609 C20.183975 5.60394258 17.85568124 5.66119372 15.52734375 5.71875 C14.80336899 5.73232544 14.07939423 5.74590088 13.33348083 5.7598877 C9.54038114 5.79722771 9.54038114 5.79722771 6 7 C6 6.34 6 5.68 6 5 C5.38125 4.9175 4.7625 4.835 4.125 4.75 C2 4 2 4 0.75 1.9375 C0.5025 1.298125 0.255 0.65875 0 0 Z " fill="#610307" transform="translate(156,235)"/>
<path d="M0 0 C4.60408143 -0.02506619 9.20812154 -0.04302973 13.81225586 -0.05493164 C15.37248427 -0.05990307 16.93270817 -0.06668257 18.49291992 -0.07543945 C28.05602403 -0.12769685 37.47289338 0.06963079 47 1 C47 1.33 47 1.66 47 2 C42.38 2.33 37.76 2.66 33 3 C33.66 3.99 34.32 4.98 35 6 C35 6.99 35 7.98 35 9 C32 11 32 11 29.8125 10.625 C29.214375 10.41875 28.61625 10.2125 28 10 C28.58929011 6.96936513 29.25044562 3.9982175 30 1 C20.1 1 10.2 1 0 1 C0 0.67 0 0.34 0 0 Z " fill="#A3672A" transform="translate(184,133)"/>
<path d="M0 0 C1.65 0 3.3 0 5 0 C5 7.59 5 15.18 5 23 C3.35 23 1.7 23 0 23 C0.495 14.09 0.495 14.09 1 5 C0.01 5.33 -0.98 5.66 -2 6 C-1.49396008 3.83125748 -1.00016187 2.00032373 0 0 Z " fill="#DAC541" transform="translate(158,266)"/>
<path d="M0 0 C0.33 0 0.66 0 1 0 C1.62272262 11.65875128 1.62272262 11.65875128 -0.625 16.5 C-7.38990523 23.62095288 -13.85218697 27.84073023 -23.76953125 28.09765625 C-25.11722242 28.09108215 -26.46489707 28.07926444 -27.8125 28.0625 C-28.50537109 28.05798828 -29.19824219 28.05347656 -29.91210938 28.04882812 C-31.60811068 28.03713156 -33.30406703 28.01919924 -35 28 C-35 27.67 -35 27.34 -35 27 C-33.19015625 26.85304687 -33.19015625 26.85304687 -31.34375 26.703125 C-29.72908825 26.55292391 -28.11450895 26.4018347 -26.5 26.25 C-25.70851563 26.188125 -24.91703125 26.12625 -24.1015625 26.0625 C-19.02504013 25.56316993 -15.16702438 24.42567531 -10.70898438 21.92871094 C-9 21 -9 21 -6 20 C-4.89163577 18.11683841 -4.89163577 18.11683841 -4 16 C-3.34 15.01 -2.68 14.02 -2 13 C-1.55296766 10.78415454 -1.18536758 8.55158039 -0.875 6.3125 C-0.70742187 5.13300781 -0.53984375 3.95351562 -0.3671875 2.73828125 C-0.18542969 1.38283203 -0.18542969 1.38283203 0 0 Z " fill="#D2B73E" transform="translate(93,215)"/>
<path d="M0 0 C0.70125 0.309375 1.4025 0.61875 2.125 0.9375 C4.92773554 2.09133026 4.92773554 2.09133026 7.75 2.375 C11.48035192 3.09237537 14.45402137 4.42182657 17.875 6.0625 C19.02742188 6.61035156 20.17984375 7.15820312 21.3671875 7.72265625 C22.23601562 8.14417969 23.10484375 8.56570312 24 9 C24 10.32 24 11.64 24 13 C18.98269433 11.47745284 14.42517728 9.39580734 9.75 7.0625 C8.67105469 6.54139648 8.67105469 6.54139648 7.5703125 6.00976562 C6.88195313 5.66751953 6.19359375 5.32527344 5.484375 4.97265625 C4.86272461 4.66593994 4.24107422 4.35922363 3.60058594 4.04321289 C2 3 2 3 0 0 Z " fill="#9D682A" transform="translate(47,202)"/>
<path d="M0 0 C0.33 0 0.66 0 1 0 C1.62805304 9.14166085 1.62805304 9.14166085 -0.875 12.5625 C-4.31850687 14.89193112 -6.29254654 15.13600917 -10.4375 15.125 C-11.40558594 15.12757813 -12.37367188 15.13015625 -13.37109375 15.1328125 C-16 15 -16 15 -19 14 C-18.67 12.68 -18.34 11.36 -18 10 C-17.505 10.33 -17.01 10.66 -16.5 11 C-12.78330061 12.48667975 -10.0058044 12.31792098 -6 12 C-3.17720326 9.88962339 -2.32114902 7.62663249 -1.3125 4.3125 C-1.06113281 3.50425781 -0.80976563 2.69601562 -0.55078125 1.86328125 C-0.36902344 1.24839844 -0.18726563 0.63351562 0 0 Z " fill="#D0B43D" transform="translate(191,274)"/>
<path d="M0 0 C3.0625 2 3.0625 2 5 4 C4.67 5.65 4.34 7.3 4 9 C3.505 8.175 3.01 7.35 2.5 6.5 C-0.13031799 3.86968201 -0.57032093 3.56793807 -4.0625 3.375 C-8.11571404 3.55007715 -8.11571404 3.55007715 -9.875 6.5 C-10.24625 7.325 -10.6175 8.15 -11 9 C-11.66 9 -12.32 9 -13 9 C-13.47792208 3.62337662 -13.47792208 3.62337662 -11.5625 1.125 C-7.71142555 -0.56571561 -4.13545157 -0.6990532 0 0 Z " fill="#CFB23D" transform="translate(186,266)"/>
<path d="M0 0 C0.66 0 1.32 0 2 0 C2.5982906 6.22222222 2.5982906 6.22222222 0.125 9.4375 C-4.28408618 11.64204309 -8.16014577 11.80664237 -13 11 C-15.6875 9.3125 -15.6875 9.3125 -17 7 C-16.75 4.25 -16.75 4.25 -16 2 C-15.731875 2.61875 -15.46375 3.2375 -15.1875 3.875 C-14.04443152 6.2995233 -14.04443152 6.2995233 -11 8 C-7.45812169 8.33338596 -7.45812169 8.33338596 -4 8 C-1.53721199 5.53721199 -1.00228745 3.29323018 0 0 Z " fill="#D2B63E" transform="translate(244,278)"/>
<path d="M0 0 C0.33 0 0.66 0 1 0 C1.50423019 5.29441695 0.18923033 7.81413519 -3 12 C-3.60328125 11.57847656 -4.2065625 11.15695313 -4.828125 10.72265625 C-5.62734375 10.17480469 -6.4265625 9.62695312 -7.25 9.0625 C-8.03890625 8.51722656 -8.8278125 7.97195312 -9.640625 7.41015625 C-13.32073886 5.210618 -16.38523072 4.86082017 -20.625 4.875 C-21.40101562 4.87242187 -22.17703125 4.86984375 -22.9765625 4.8671875 C-25.06959248 4.87326631 -25.06959248 4.87326631 -27 6 C-27 7.65 -27 9.3 -27 11 C-27.99 10.34 -28.98 9.68 -30 9 C-29.42655063 6.13275314 -29.1385485 5.1385485 -27 3 C-23.953125 2.69921875 -23.953125 2.69921875 -20.25 2.6875 C-19.03828125 2.67074219 -17.8265625 2.65398437 -16.578125 2.63671875 C-12.71418091 3.02901875 -10.33994012 4.07348382 -7 6 C-6.21625 6.391875 -5.4325 6.78375 -4.625 7.1875 C-4.08875 7.455625 -3.5525 7.72375 -3 8 C-2.01 5.36 -1.02 2.72 0 0 Z " fill="#CBAB3B" transform="translate(88,179)"/>
<path d="M0 0 C0.58984375 1.859375 0.58984375 1.859375 1 4 C-0.4375 6.25 -0.4375 6.25 -3 8 C-5.85289136 8.46141438 -8.06538173 8.28399532 -11 8 C-11.66 7.34 -12.32 6.68 -13 6 C-12.625 3.875 -12.625 3.875 -12 2 C-11.01 2 -10.02 2 -9 2 C-7.43141704 1.69657808 -5.86886477 1.36089618 -4.3125 1 C-3.50425781 0.814375 -2.69601563 0.62875 -1.86328125 0.4375 C-1.24839844 0.293125 -0.63351563 0.14875 0 0 Z " fill="#6E1513" transform="translate(188,279)"/>
<path d="M0 0 C1.32 0.66 2.64 1.32 4 2 C3.67 18.17 3.34 34.34 3 51 C2.67 51 2.34 51 2 51 C1.98018066 49.68281982 1.96036133 48.36563965 1.93994141 47.00854492 C1.86394159 42.12748912 1.77521552 37.24673362 1.68261719 32.3659668 C1.64430419 30.25242028 1.60945543 28.13880804 1.578125 26.02514648 C1.53252496 22.9891814 1.47452217 19.95366972 1.4140625 16.91796875 C1.40251129 15.97100632 1.39096008 15.02404388 1.37905884 14.04838562 C1.35918915 13.16769913 1.33931946 12.28701263 1.31884766 11.37963867 C1.30552399 10.60464523 1.29220032 9.82965179 1.2784729 9.03117371 C1.10791565 6.68895197 1.10791565 6.68895197 -1 4 C-0.625 1.8125 -0.625 1.8125 0 0 Z " fill="#701314" transform="translate(180,175)"/>
<path d="M0 0 C0.66 0 1.32 0 2 0 C3.32719886 6.96779403 3.08825381 13.92988911 3 21 C-1.29 21 -5.58 21 -10 21 C-10 19.02 -10 17.04 -10 15 C-9.67 16.32 -9.34 17.64 -9 19 C-6.03 19 -3.06 19 0 19 C0 12.73 0 6.46 0 0 Z " fill="#6D1413" transform="translate(194,96)"/>
<path d="M0 0 C0.66 0 1.32 0 2 0 C2 0.99 2 1.98 2 3 C3.32 3.33 4.64 3.66 6 4 C5.835 4.61875 5.67 5.2375 5.5 5.875 C4.92365356 7.96063386 4.92365356 7.96063386 5 10 C4.236875 9.814375 3.47375 9.62875 2.6875 9.4375 C-0.08967375 8.77180827 -0.08967375 8.77180827 -3 10 C-2.67 8.35 -2.34 6.7 -2 5 C-2.66 5 -3.32 5 -4 5 C-4 4.34 -4 3.68 -4 3 C-3.01 2.67 -2.02 2.34 -1 2 C-0.67 1.34 -0.34 0.68 0 0 Z " fill="#6E1313" transform="translate(199,136)"/>
<path d="M0 0 C0.33 0 0.66 0 1 0 C1.33 1.65 1.66 3.3 2 5 C2.65355469 4.65195313 3.30710938 4.30390625 3.98046875 3.9453125 C7.93264266 2.70802132 11.30829817 3.25236272 15.3125 3.875 C16.42334961 4.03162109 16.42334961 4.03162109 17.55664062 4.19140625 C19.37280085 4.44918383 21.18667304 4.72299353 23 5 C23 5.33 23 5.66 23 6 C21.33710938 6.19916016 21.33710938 6.19916016 19.640625 6.40234375 C18.1770673 6.58059757 16.71352651 6.75899028 15.25 6.9375 C14.52039063 7.02451172 13.79078125 7.11152344 13.0390625 7.20117188 C9.62415558 7.62027409 6.32396457 8.117274 3 9 C3 8.34 3 7.68 3 7 C2.01 7 1.02 7 0 7 C0 4.69 0 2.38 0 0 Z " fill="#A36C3C" transform="translate(188,180)"/>
<path d="M0 0 C0 0.99 0 1.98 0 3 C2.97 3.495 2.97 3.495 6 4 C6 4.33 6 4.66 6 5 C-0.6 5 -7.2 5 -14 5 C-14 4.67 -14 4.34 -14 4 C-11.36 4 -8.72 4 -6 4 C-6 3.34 -6 2.68 -6 2 C-7.65 1.67 -9.3 1.34 -11 1 C-11 1.66 -11 2.32 -11 3 C-13.31 2.67 -15.62 2.34 -18 2 C-18 1.67 -18 1.34 -18 1 C-12.03325384 -0.32594359 -6.07416385 -0.0884587 0 0 Z " fill="#772017" transform="translate(169,130)"/>
<path d="M0 0 C0.66 0 1.32 0 2 0 C1.69078116 1.45903258 1.37751201 2.91720722 1.0625 4.375 C0.88847656 5.18710938 0.71445312 5.99921875 0.53515625 6.8359375 C0 9 0 9 -1 11 C1.64 11.33 4.28 11.66 7 12 C7 12.33 7 12.66 7 13 C2.38 13 -2.24 13 -7 13 C-6.34 10.69 -5.68 8.38 -5 6 C-3.68 6.33 -2.36 6.66 -1 7 C-0.67 4.69 -0.34 2.38 0 0 Z " fill="#995B2F" transform="translate(264,200)"/>
<path d="M0 0 C0.66 0 1.32 0 2 0 C2.99 3.3 3.98 6.6 5 10 C3 10 3 10 1.375 8.5 C0.92125 8.005 0.4675 7.51 0 7 C-0.33 9.31 -0.66 11.62 -1 14 C-1.99 14.33 -2.98 14.66 -4 15 C-3.43179252 9.54520815 -2.05362055 5.08940744 0 0 Z " fill="#6E1F1E" transform="translate(264,193)"/>
<path d="M0 0 C2.64 0 5.28 0 8 0 C8 0.33 8 0.66 8 1 C5.36 1 2.72 1 0 1 C0 0.67 0 0.34 0 0 Z M5 3 C5 3.66 5 4.32 5 5 C-0.28 4.67 -5.56 4.34 -11 4 C-6.44960129 -0.55039871 -0.44490344 0.51090128 5 3 Z " fill="#6F1313" transform="translate(242,131)"/>
<path d="M0 0 C1.32 0.66 2.64 1.32 4 2 C3.67 3.65 3.34 5.3 3 7 C3.763125 6.62875 4.52625 6.2575 5.3125 5.875 C6.199375 5.58625 7.08625 5.2975 8 5 C8.99 5.66 9.98 6.32 11 7 C11.33 6.34 11.66 5.68 12 5 C12 5.66 12 6.32 12 7 C14.64 7 17.28 7 20 7 C20 7.33 20 7.66 20 8 C11.42 8 2.84 8 -6 8 C-6 7.67 -6 7.34 -6 7 C-3.36 7 -0.72 7 2 7 C1.42415568 4.61435923 0.77772405 2.33317216 0 0 Z " fill="#D6BE40" transform="translate(193,139)"/>
<path d="M0 0 C0.33 0 0.66 0 1 0 C1.3125 2.25 1.3125 2.25 1 5 C-1.21299072 7.72935522 -2.90990802 8.85735468 -6.41796875 9.31640625 C-10.87752363 9.4152147 -14.07743944 9.26475783 -18 7 C-16.64455078 6.90912109 -16.64455078 6.90912109 -15.26171875 6.81640625 C-14.08222656 6.73261719 -12.90273437 6.64882812 -11.6875 6.5625 C-9.92986328 6.44068359 -9.92986328 6.44068359 -8.13671875 6.31640625 C-4.97409042 6.1132629 -4.97409042 6.1132629 -2 5 C-0.78130071 2.49552484 -0.78130071 2.49552484 0 0 Z " fill="#5E0A0B" transform="translate(247,178)"/>
<path d="M0 0 C0.33 0.66 0.66 1.32 1 2 C1.66 2 2.32 2 3 2 C2.67 2.721875 2.34 3.44375 2 4.1875 C0.6508192 7.98207101 0.38762644 10.58388613 2 14.3125 C2.33 14.869375 2.66 15.42625 3 16 C1.68 16 0.36 16 -1 16 C-2.77641602 10.44869995 -2.53883587 5.23634898 0 0 Z " fill="#650E10" transform="translate(252,224)"/>
<path d="M0 0 C2.60444348 -0.05394705 5.20776998 -0.09364469 7.8125 -0.125 C8.55048828 -0.14175781 9.28847656 -0.15851563 10.04882812 -0.17578125 C13.91246426 -0.21074628 15.70903668 -0.19397555 19 2 C17.02 2.33 15.04 2.66 13 3 C13.66 4.65 14.32 6.3 15 8 C14.01 8.495 14.01 8.495 13 9 C12.9175 8.38125 12.835 7.7625 12.75 7.125 C12.18741541 4.81562433 12.18741541 4.81562433 9.9375 3.75 C9.298125 3.5025 8.65875 3.255 8 3 C8.33 2.34 8.66 1.68 9 1 C6.03 1 3.06 1 0 1 C0 0.67 0 0.34 0 0 Z " fill="#D1B73E" transform="translate(233,136)"/>
<path d="M0 0 C5.61 0 11.22 0 17 0 C17 0.33 17 0.66 17 1 C13.7 1 10.4 1 7 1 C7 1.99 7 2.98 7 4 C3.37 4 -0.26 4 -4 4 C-2.68 3.01 -1.36 2.02 0 1 C0 0.67 0 0.34 0 0 Z " fill="#61020D" transform="translate(169,130)"/>
<path d="M0 0 C1.65 0 3.3 0 5 0 C4.67 0.66 4.34 1.32 4 2 C3.67 2 3.34 2 3 2 C3 8.6 3 15.2 3 22 C2.67 22 2.34 22 2 22 C2 16.39 2 10.78 2 5 C0.68 5.33 -0.64 5.66 -2 6 C-1.49396008 3.83125748 -1.00016187 2.00032373 0 0 Z " fill="#C9A83A" transform="translate(158,266)"/>
<path d="M0 0 C0.66 0.33 1.32 0.66 2 1 C0.79618552 3.49361571 -0.45428722 5.68143083 -2 8 C-2.38499891 9.65549531 -2.72793135 11.3222433 -3 13 C-3.66 13 -4.32 13 -5 13 C-5.66 10.69 -6.32 8.38 -7 6 C-6.34 5.34 -5.68 4.68 -5 4 C-4.34 4 -3.68 4 -3 4 C-1.36323743 2.0399719 -1.36323743 2.0399719 0 0 Z " fill="#6D1813" transform="translate(204,60)"/>
<path d="M0 0 C0.66 0.33 1.32 0.66 2 1 C1.175 1.969375 0.35 2.93875 -0.5 3.9375 C-3.60263447 8.20252992 -3.520895 11.89522901 -3 17 C-4.32 16.01 -5.64 15.02 -7 14 C-6.73672346 7.54972485 -4.49335977 4.52084209 0 0 Z " fill="#701D14" transform="translate(234,101)"/>
<path d="M0 0 C0.66 0 1.32 0 2 0 C3.7265625 1.79296875 3.7265625 1.79296875 5.625 4.1875 C6.25664062 4.96480469 6.88828125 5.74210937 7.5390625 6.54296875 C9.19984457 9.33610223 9.4639089 10.80658057 9 14 C7 15.8125 7 15.8125 5 17 C5.05800781 16.43152344 5.11601562 15.86304687 5.17578125 15.27734375 C5.55635795 8.76404544 4.14962645 5.97955174 0 1 C0 0.67 0 0.34 0 0 Z " fill="#701E14" transform="translate(164,101)"/>
<path d="M0 0 C-0.33 0.99 -0.66 1.98 -1 3 C-2.13888672 3.07347656 -2.13888672 3.07347656 -3.30078125 3.1484375 C-4.29464844 3.22320312 -5.28851563 3.29796875 -6.3125 3.375 C-7.79169922 3.47941406 -7.79169922 3.47941406 -9.30078125 3.5859375 C-12.21528433 3.83865472 -12.21528433 3.83865472 -15 6 C-15.33 5.01 -15.66 4.02 -16 3 C-11.14640505 -1.01676824 -5.95027665 -0.28136159 0 0 Z " fill="#82382F" transform="translate(73,179)"/>
<path d="M0 0 C1.70884005 1.62339805 3.37446717 3.29319053 5 5 C5 5.66 5 6.32 5 7 C0.49646738 8.75747614 -3.17639811 9.19294408 -8 9 C-8.33 8.34 -8.66 7.68 -9 7 C-5.7 6.67 -2.4 6.34 1 6 C0.67 4.02 0.34 2.04 0 0 Z " fill="#C7A53A" transform="translate(153,233)"/>
<path d="M0 0 C12.92705221 -0.56477413 12.92705221 -0.56477413 18 3 C18.33 3.66 18.66 4.32 19 5 C16.28269597 4.52047576 13.79238178 3.92618019 11.1875 3 C7.42304529 1.8189946 3.92072774 1.40559252 0 1 C0 0.67 0 0.34 0 0 Z " fill="#570809" transform="translate(64,180)"/>
<path d="M0 0 C1.25541557 3.76624671 0.37061958 5.37188934 -1 9 C-4.63 8.67 -8.26 8.34 -12 8 C-12 7.67 -12 7.34 -12 7 C-8.535 6.505 -8.535 6.505 -5 6 C-4.34 4.35 -3.68 2.7 -3 1 C-2.34 1.33 -1.68 1.66 -1 2 C-0.67 1.34 -0.34 0.68 0 0 Z " fill="#BD9435" transform="translate(191,271)"/>
<path d="M0 0 C0.33 0 0.66 0 1 0 C1.27672202 1.91299138 1.52042815 3.83077936 1.75 5.75 C1.88921875 6.81734375 2.0284375 7.8846875 2.171875 8.984375 C2 12 2 12 0.015625 14.390625 C-0.64953125 14.92171875 -1.3146875 15.4528125 -2 16 C-3.25240315 12.24279056 -2.4357968 11.58949199 -1 8 C-0.54444124 5.33597161 -0.27373407 2.69171836 0 0 Z " fill="#772926" transform="translate(90,216)"/>
<path d="M0 0 C0.80050781 0.22042969 1.60101563 0.44085938 2.42578125 0.66796875 C3.23402344 0.88066406 4.04226562 1.09335937 4.875 1.3125 C5.79732422 1.58126953 5.79732422 1.58126953 6.73828125 1.85546875 C6.73828125 2.18546875 6.73828125 2.51546875 6.73828125 2.85546875 C5.66578125 3.12359375 4.59328125 3.39171875 3.48828125 3.66796875 C0.17319197 4.71774702 -1.70049521 5.60159203 -4.26171875 7.85546875 C-3.93171875 6.53546875 -3.60171875 5.21546875 -3.26171875 3.85546875 C-3.92171875 3.52546875 -4.58171875 3.19546875 -5.26171875 2.85546875 C-2.89519796 -0.18501265 -2.89519796 -0.18501265 0 0 Z " fill="#D4BB3F" transform="translate(209.26171875,61.14453125)"/>
<path d="M0 0 C0.66 0 1.32 0 2 0 C2.20625 0.9075 2.4125 1.815 2.625 2.75 C4.3204079 6.75732776 6.27549784 7.89484661 10 10 C9.01 10.33 8.02 10.66 7 11 C2 8 2 8 0 6 C-0.04080783 4.00041636 -0.04254356 1.99954746 0 0 Z " fill="#5C090C" transform="translate(56,183)"/>
<path d="M0 0 C1.67542976 0.28604898 3.34385343 0.61781233 5 1 C4.67 2.32 4.34 3.64 4 5 C2.68 5 1.36 5 0 5 C-0.5625 3.0625 -0.5625 3.0625 -1 1 C-0.67 0.67 -0.34 0.34 0 0 Z " fill="#6B1312" transform="translate(169,139)"/>
<path d="M0 0 C1.67542976 0.28604898 3.34385343 0.61781233 5 1 C4.67 2.32 4.34 3.64 4 5 C2.68 5 1.36 5 0 5 C-0.5625 3.0625 -0.5625 3.0625 -1 1 C-0.67 0.67 -0.34 0.34 0 0 Z " fill="#6B1312" transform="translate(227,139)"/>
<path d="M0 0 C2.0625 0.4375 2.0625 0.4375 4 1 C3.67 2.65 3.34 4.3 3 6 C1.68 5.67 0.36 5.34 -1 5 C-1 1 -1 1 0 0 Z " fill="#6B1212" transform="translate(184,138)"/>
<path d="M0 0 C2.0625 0.4375 2.0625 0.4375 4 1 C4 2.32 4 3.64 4 5 C2.68 5.33 1.36 5.66 0 6 C-0.38218767 4.34385343 -0.71395102 2.67542976 -1 1 C-0.67 0.67 -0.34 0.34 0 0 Z " fill="#6C1412" transform="translate(155,140)"/>
<path d="M0 0 C2.0625 0.4375 2.0625 0.4375 4 1 C4 2.32 4 3.64 4 5 C2.68 5.33 1.36 5.66 0 6 C-0.38218767 4.34385343 -0.71395102 2.67542976 -1 1 C-0.67 0.67 -0.34 0.34 0 0 Z " fill="#6A1211" transform="translate(213,138)"/>
<path d="M0 0 C0.875 2 0.875 2 1 4 C0.34 4.66 -0.32 5.32 -1 6 C-1.350625 5.195625 -1.70125 4.39125 -2.0625 3.5625 C-3.85667284 0.6132233 -3.85667284 0.6132233 -7.6875 0.1875 C-9.3271875 0.0946875 -9.3271875 0.0946875 -11 0 C-11 -0.33 -11 -0.66 -11 -1 C-3.11538462 -2.51627219 -3.11538462 -2.51627219 0 0 Z " fill="#C7A439" transform="translate(190,269)"/>
<path d="M0 0 C3.34998521 1.11666174 3.79340222 1.74694925 5.6875 4.5625 C6.12449219 5.20316406 6.56148438 5.84382812 7.01171875 6.50390625 C7.33785156 6.99761719 7.66398437 7.49132812 8 8 C7.34 8.66 6.68 9.32 6 10 C4.99106869 8.90398831 3.99311775 7.79786082 3 6.6875 C2.1646875 5.76517578 2.1646875 5.76517578 1.3125 4.82421875 C0 3 0 3 0 0 Z " fill="#641613" transform="translate(323,183)"/>
<path d="M0 0 C2.0625 0.4375 2.0625 0.4375 4 1 C3.6875 2.9375 3.6875 2.9375 3 5 C2.01 5.33 1.02 5.66 0 6 C-0.66 5.67 -1.32 5.34 -2 5 C-1.125 1.125 -1.125 1.125 0 0 Z " fill="#6B1312" transform="translate(242,140)"/>
<path d="M0 0 C-0.66 2.31 -1.32 4.62 -2 7 C-2.33 7 -2.66 7 -3 7 C-3.66 5.02 -4.32 3.04 -5 1 C-7.31 0.67 -9.62 0.34 -12 0 C-12 -0.33 -12 -0.66 -12 -1 C-3.42857143 -2.42857143 -3.42857143 -2.42857143 0 0 Z " fill="#B98C33" transform="translate(245,277)"/>
<path d="M0 0 C0.33 1.32 0.66 2.64 1 4 C1.66 4 2.32 4 3 4 C3 4.66 3 5.32 3 6 C2.236875 5.814375 1.47375 5.62875 0.6875 5.4375 C-2.08967375 4.77180827 -2.08967375 4.77180827 -5 6 C-4.625 3.5625 -4.625 3.5625 -4 1 C-2 0 -2 0 0 0 Z " fill="#731E15" transform="translate(201,140)"/>
<path d="M0 0 C0.74886475 0.00523682 1.49772949 0.01047363 2.26928711 0.01586914 C3.07817383 0.0190918 3.88706055 0.02231445 4.72045898 0.02563477 C5.5705957 0.03401367 6.42073242 0.04239258 7.29663086 0.05102539 C8.15063477 0.05553711 9.00463867 0.06004883 9.88452148 0.06469727 C12.00108749 0.07652166 14.11761771 0.0944577 16.23413086 0.11352539 C16.23413086 0.44352539 16.23413086 0.77352539 16.23413086 1.11352539 C15.33049805 1.17411133 14.42686523 1.23469727 13.49584961 1.29711914 C11.72661133 1.42280273 11.72661133 1.42280273 9.92163086 1.55102539 C8.74987305 1.63223633 7.57811523 1.71344727 6.37084961 1.79711914 C3.20822128 2.0002625 3.20822128 2.0002625 0.23413086 3.11352539 C-0.75586914 2.45352539 -1.74586914 1.79352539 -2.76586914 1.11352539 C-1.76586914 0.11352539 -1.76586914 0.11352539 0 0 Z " fill="#5E0003" transform="translate(211.765869140625,237.886474609375)"/>
<path d="M0 0 C0 0.33 0 0.66 0 1 C-2.31 1 -4.62 1 -7 1 C-6.34 2.98 -5.68 4.96 -5 7 C-7.5 5.625 -7.5 5.625 -10 4 C-10 3.34 -10 2.68 -10 2 C-10.66 1.67 -11.32 1.34 -12 1 C-8.0186217 -0.3271261 -4.14954773 -0.06915913 0 0 Z " fill="#BD9435" transform="translate(165,135)"/>
<path d="M0 0 C3.33557632 2.9905167 5.15083921 5.93184627 7 10 C5.68 10 4.36 10 3 10 C0 3.375 0 3.375 0 0 Z " fill="#62100F" transform="translate(295,230)"/>
<path d="M0 0 C3.3 0.33 6.6 0.66 10 1 C9.67 1.66 9.34 2.32 9 3 C6.03 3 3.06 3 0 3 C0 2.01 0 1.02 0 0 Z " fill="#D5BD3F" transform="translate(177,278)"/>
<path d="M0 0 C0.75 1.6875 0.75 1.6875 1 4 C-0.9375 6.75 -0.9375 6.75 -3 9 C-3.75 6.75 -3.75 6.75 -4 4 C-2.0625 1.6875 -2.0625 1.6875 0 0 Z " fill="#D3BA3F" transform="translate(231,267)"/>
<path d="M0 0 C2.5 2.3125 2.5 2.3125 5 5 C5 5.99 5 6.98 5 8 C4.34 8 3.68 8 3 8 C3 7.34 3 6.68 3 6 C2.01 6 1.02 6 0 6 C0 4.02 0 2.04 0 0 Z " fill="#620F11" transform="translate(316,197)"/>
<path d="M0 0 C1.32 0.66 2.64 1.32 4 2 C3.67 4.31 3.34 6.62 3 9 C0 7 0 7 -0.75 4.5 C-1 2 -1 2 0 0 Z " fill="#792A1B" transform="translate(180,175)"/>
<path d="M0 0 C0.2475 0.5775 0.495 1.155 0.75 1.75 C2.16683317 4.3002997 3.87627537 6.01785701 6 8 C3.03 7.505 3.03 7.505 0 7 C-1.125 2.25 -1.125 2.25 0 0 Z " fill="#D7C040" transform="translate(228,280)"/>
<path d="M0 0 C-3.64418341 2.42945561 -4.92923364 2.0828781 -9.1875 1.625 C-10.27417969 1.51414063 -11.36085938 1.40328125 -12.48046875 1.2890625 C-13.31191406 1.19367188 -14.14335938 1.09828125 -15 1 C-15 0.67 -15 0.34 -15 0 C-4.44191344 -1.33257403 -4.44191344 -1.33257403 0 0 Z " fill="#853C3B" transform="translate(135,239)"/>
<path d="M0 0 C0.33 0.66 0.66 1.32 1 2 C1.66 2 2.32 2 3 2 C2.1875 4.4375 2.1875 4.4375 1 7 C0.01 7.33 -0.98 7.66 -2 8 C-1.47731534 5.23723823 -0.89130413 2.6739124 0 0 Z " fill="#782D21" transform="translate(252,224)"/>
<path d="M0 0 C0.99 0.99 1.98 1.98 3 3 C2.34 4.32 1.68 5.64 1 7 C-0.32 6.34 -1.64 5.68 -3 5 C-2.01 3.35 -1.02 1.7 0 0 Z " fill="#C9A93B" transform="translate(216,281)"/>
<path d="M0 0 C2.64 0 5.28 0 8 0 C8.33 0.66 8.66 1.32 9 2 C5.7 2.33 2.4 2.66 -1 3 C-0.67 2.01 -0.34 1.02 0 0 Z " fill="#D2B63E" transform="translate(232,274)"/>
<path d="M0 0 C-0.66 1.32 -1.32 2.64 -2 4 C-6.455 3.01 -6.455 3.01 -11 2 C-11 1.67 -11 1.34 -11 1 C-7.27569643 0.30710631 -3.78916254 -0.11144596 0 0 Z " fill="#C49F38" transform="translate(246,267)"/>
<path d="M0 0 C1.32 0 2.64 0 4 0 C4.33 2.31 4.66 4.62 5 7 C3.29115995 5.37660195 1.62553283 3.70680947 0 2 C0 1.34 0 0.68 0 0 Z " fill="#5F0D0C" transform="translate(341,206)"/>
<path d="M0 0 C3.68754757 0.49831724 5.60490662 1.10067643 8 4 C7.67 4.99 7.34 5.98 7 7 C5.83040013 6.02433888 4.66438823 5.044375 3.5 4.0625 C2.8503125 3.51722656 2.200625 2.97195312 1.53125 2.41015625 C1.0259375 1.94480469 0.520625 1.47945312 0 1 C0 0.67 0 0.34 0 0 Z " fill="#5D050C" transform="translate(190,59)"/>
<path d="M0 0 C0.66 0 1.32 0 2 0 C2 2.31 2 4.62 2 7 C1.01 6.67 0.02 6.34 -1 6 C-1.042721 4.33388095 -1.04063832 2.66617115 -1 1 C-0.67 0.67 -0.34 0.34 0 0 Z " fill="#CCAD3B" transform="translate(244,278)"/>
<path d="M0 0 C3.875 1.75 3.875 1.75 5 4 C2.03 4 -0.94 4 -4 4 C-2.68 2.68 -1.36 1.36 0 0 Z " fill="#5C0709" transform="translate(137,235)"/>
<path d="M0 0 C2.46800047 1.15173355 4.04783565 2.04783565 6 4 C6.125 7.125 6.125 7.125 6 10 C5.67 10 5.34 10 5 10 C4.731875 9.05125 4.46375 8.1025 4.1875 7.125 C3.25013412 3.74732727 3.25013412 3.74732727 0 2 C0 1.34 0 0.68 0 0 Z " fill="#590608" transform="translate(70,212)"/>
<path d="M0 0 C0.6875 1.8125 0.6875 1.8125 1 4 C-0.4375 5.75 -0.4375 5.75 -2 7 C-2.99 6.01 -3.98 5.02 -5 4 C-3.68 4 -2.36 4 -1 4 C-0.67 2.68 -0.34 1.36 0 0 Z " fill="#661814" transform="translate(86,181)"/>
</svg>
