<?xml version="1.0" encoding="UTF-8"?>
<svg version="1.1" xmlns="http://www.w3.org/2000/svg" width="200" height="200">
<path d="M0 0 C66 0 132 0 200 0 C200 66 200 132 200 200 C134 200 68 200 0 200 C0 134 0 68 0 0 Z " fill="#FBFBFC" transform="translate(0,0)"/>
<path d="M0 0 C4.34411713 -1.10913629 7.68367673 -1.31535811 12 0 C16.46709768 4.00893381 19.68151675 9.25835377 22.86181641 14.30419922 C24.02201579 16.15072193 24.02201579 16.15072193 26 18 C26.33 12.72 26.66 7.44 27 2 C25.68 2 24.36 2 23 2 C23 1.34 23 0.68 23 0 C26.3 0 29.6 0 33 0 C33 0.66 33 1.32 33 2 C32.01 2.33 31.02 2.66 30 3 C29.67 13.23 29.34 23.46 29 34 C25.63167822 30.63167822 22.651346 27.48073353 19.6875 23.8125 C18.91921875 22.86375 18.1509375 21.915 17.359375 20.9375 C13.89974657 16.63014805 10.44095753 12.3222927 7 8 C6.88398996 11.60389664 6.81281592 15.20731467 6.75 18.8125 C6.71648437 19.83666016 6.68296875 20.86082031 6.6484375 21.91601562 C6.63554687 22.89892578 6.62265625 23.88183594 6.609375 24.89453125 C6.58842773 25.80050049 6.56748047 26.70646973 6.54589844 27.63989258 C6.83699844 30.57798395 6.83699844 30.57798395 11 33 C7.37 33 3.74 33 0 33 C0.99 32.34 1.98 31.68 3 31 C3.41789089 28.08935621 3.41789089 28.08935621 3.29296875 24.6796875 C3.28330078 23.42285156 3.27363281 22.16601562 3.26367188 20.87109375 C3.2259668 18.89302734 3.2259668 18.89302734 3.1875 16.875 C3.17245483 15.53517097 3.15876613 14.19532596 3.14648438 12.85546875 C3.11102872 9.56991158 3.06160849 6.28515418 3 3 C2.01 2.67 1.02 2.34 0 2 C0 1.34 0 0.68 0 0 Z " fill="#576176" transform="translate(156,66)"/>
<path d="M0 0 C0.66 0 1.32 0 2 0 C2.47626831 1.08885498 2.47626831 1.08885498 2.9621582 2.19970703 C4.4106652 5.50884411 5.86155965 8.81692919 7.3125 12.125 C7.81201172 13.26710938 8.31152344 14.40921875 8.82617188 15.5859375 C9.55610352 17.24882813 9.55610352 17.24882813 10.30078125 18.9453125 C10.96847534 20.46922607 10.96847534 20.46922607 11.6496582 22.02392578 C14.17190085 27.94324195 14.17190085 27.94324195 18 33 C12.72 33 7.44 33 2 33 C3.98 32.505 3.98 32.505 6 32 C5.67 31.236875 5.34 30.47375 5 29.6875 C4 27 4 27 4 24 C0.04 24 -3.92 24 -8 24 C-8.33 26.31 -8.66 28.62 -9 31 C-8.01 31.66 -7.02 32.32 -6 33 C-9.63 33 -13.26 33 -17 33 C-16.30519531 32.29617187 -15.61039062 31.59234375 -14.89453125 30.8671875 C-10.57996782 25.68971139 -8.31705774 19.26248783 -5.6875 13.125 C-5.13307385 11.851165 -4.57774288 10.57772341 -4.02148438 9.3046875 C-2.6720565 6.20687047 -1.33192023 3.10537504 0 0 Z " fill="#3F4C64" transform="translate(131,66)"/>
<path d="M0 0 C9.9 0 19.8 0 30 0 C30 2.97 30 5.94 30 9 C29.484375 8.21625 28.96875 7.4325 28.4375 6.625 C25.74843258 3.27488068 25.74843258 3.27488068 19 2 C19.495 16.355 19.495 16.355 20 31 C21.32 31.66 22.64 32.32 24 33 C18.39 33 12.78 33 7 33 C7.99 32.34 8.98 31.68 10 31 C10.51184645 27.99585431 10.51184645 27.99585431 10.51171875 24.4609375 C10.54716797 23.15898438 10.58261719 21.85703125 10.61914062 20.515625 C10.64224231 19.13542191 10.66502464 17.75521343 10.6875 16.375 C10.72066445 14.98694648 10.7551533 13.59892393 10.79101562 12.2109375 C10.87374115 8.80737293 10.94281257 5.4040741 11 2 C7.53560578 2.80518294 7.53560578 2.80518294 4 4 C2.48207356 6.49641128 2.48207356 6.49641128 2 9 C1.34 9 0.68 9 0 9 C0 6.03 0 3.06 0 0 Z " fill="#45536C" transform="translate(10,66)"/>
<path d="M0 0 C5.37008272 -0.96855199 9.85507694 -1.00284164 14.484375 2.0859375 C17.81098628 4.55772009 20.92824592 7.21898808 24 10 C24.76441406 10.68578125 25.52882813 11.3715625 26.31640625 12.078125 C29.17032305 15.33596041 29 17.71012974 29 22 C27.5625 24.5 27.5625 24.5 25 26 C21.97639869 26.6375063 20.18381417 26.4548306 17 26 C14.9375 23.9375 14.9375 23.9375 14 21 C14.3125 17.1875 14.3125 17.1875 15 14 C16.65 14.66 18.3 15.32 20 16 C20 17.32 20 18.64 20 20 C20.99 20.33 21.98 20.66 23 21 C21.61951654 15.60444843 18.26647586 13.62239723 13.875 10.6875 C13.21628906 10.23310547 12.55757812 9.77871094 11.87890625 9.31054688 C10.26005936 8.19612329 8.63100005 7.09656009 7 6 C6.88405416 9.93725326 6.81283536 13.87406923 6.75 17.8125 C6.71648437 18.93205078 6.68296875 20.05160156 6.6484375 21.20507812 C6.63554688 22.27822266 6.62265625 23.35136719 6.609375 24.45703125 C6.58842773 25.44678955 6.56748047 26.43654785 6.54589844 27.45629883 C6.80192914 30.56197197 6.80192914 30.56197197 11 33 C7.37 33 3.74 33 0 33 C0.99 32.01 1.98 31.02 3 30 C3.50718056 27.0011387 3.50718056 27.0011387 3.51171875 23.58203125 C3.54716797 22.32841797 3.58261719 21.07480469 3.61914062 19.78320312 C3.64169922 18.47287109 3.66425781 17.16253906 3.6875 15.8125 C3.72067666 14.47717987 3.75516666 13.14189168 3.79101562 11.80664062 C3.87362057 8.53784496 3.94273229 5.26932188 4 2 C2.68 1.34 1.36 0.68 0 0 Z " fill="#A1A1A1" transform="translate(63,66)"/>
<path d="M0 0 C-1.98 0.99 -1.98 0.99 -4 2 C-4.07408587 6.09333905 -4.1285704 10.18641933 -4.16479492 14.28027344 C-4.17989358 15.67324622 -4.20037444 17.06617138 -4.22631836 18.45898438 C-4.26265122 20.45942885 -4.27811192 22.46021827 -4.29296875 24.4609375 C-4.3086792 25.66540527 -4.32438965 26.86987305 -4.34057617 28.11083984 C-4.22818604 29.0642627 -4.1157959 30.01768555 -4 31 C-3.01 31.66 -2.02 32.32 -1 33 C-6.28 33 -11.56 33 -17 33 C-16.01 32.01 -15.02 31.02 -14 30 C-13.49753325 27.68749164 -13.49753325 27.68749164 -13.48828125 25.11328125 C-13.45283203 24.17548828 -13.41738281 23.23769531 -13.38085938 22.27148438 C-13.34702148 20.80678711 -13.34702148 20.80678711 -13.3125 19.3125 C-13.27833984 18.32443359 -13.24417969 17.33636719 -13.20898438 16.31835938 C-13.12649462 13.87901947 -13.05734932 11.44003937 -13 9 C-13.99 9.66 -14.98 10.32 -16 11 C-18.1875 10.625 -18.1875 10.625 -20 10 C-20 6 -20 6 -18.92578125 4.296875 C-13.24279075 -1.15219095 -7.53320818 -0.61171916 0 0 Z " fill="#A3A3A4" transform="translate(108,66)"/>
<path d="M0 0 C3.3 0 6.6 0 10 0 C10 0.66 10 1.32 10 2 C9.01 2.33 8.02 2.66 7 3 C6.67 13.23 6.34 23.46 6 34 C2.70538905 30.70538905 -0.3567987 27.56242718 -3.3125 24 C-4.00988281 23.175 -4.70726562 22.35 -5.42578125 21.5 C-7.18665221 18.70357961 -7.34125115 17.23899395 -7 14 C-4 13 -4 13 -1 13 C0.32 14.65 1.64 16.3 3 18 C3.33 12.72 3.66 7.44 4 2 C2.68 2 1.36 2 0 2 C0 1.34 0 0.68 0 0 Z " fill="#394A62" transform="translate(179,66)"/>
<path d="M0 0 C0.33 0.66 0.66 1.32 1 2 C1.99 2.33 2.98 2.66 4 3 C4.9140625 4.9609375 4.9140625 4.9609375 5.625 7.375 C5.86476562 8.16648437 6.10453125 8.95796875 6.3515625 9.7734375 C6.56554687 10.50820312 6.77953125 11.24296875 7 12 C7.33 12.99 7.66 13.98 8 15 C4.04 15 0.08 15 -4 15 C-4.33 17.31 -4.66 19.62 -5 22 C-4.01 22.66 -3.02 23.32 -2 24 C-5.63 24 -9.26 24 -13 24 C-12.26394531 23.20335938 -11.52789062 22.40671875 -10.76953125 21.5859375 C-7.49947805 17.66187365 -5.65310046 13.30215935 -3.6875 8.625 C-3.32849609 7.79355469 -2.96949219 6.96210937 -2.59960938 6.10546875 C-1.72397687 4.07400134 -0.85776151 2.03906183 0 0 Z " fill="#5F666F" transform="translate(127,75)"/>
<path d="M0 0 C3.63 0 7.26 0 11 0 C10.34 1.65 9.68 3.3 9 5 C8.01 5 7.02 5 6 5 C6.0517332 9.10520809 6.14677764 13.20828913 6.25 17.3125 C6.26417969 18.47974609 6.27835937 19.64699219 6.29296875 20.84960938 C6.32519531 21.96787109 6.35742188 23.08613281 6.390625 24.23828125 C6.41157227 25.26993408 6.43251953 26.30158691 6.45410156 27.36450195 C6.81016416 30.54686795 6.81016416 30.54686795 11 33 C7.37 33 3.74 33 0 33 C0.99 32.01 1.98 31.02 3 30 C3.50718056 27.0011387 3.50718056 27.0011387 3.51171875 23.58203125 C3.54716797 22.32841797 3.58261719 21.07480469 3.61914062 19.78320312 C3.64169922 18.47287109 3.66425781 17.16253906 3.6875 15.8125 C3.72067666 14.47717987 3.75516666 13.14189168 3.79101562 11.80664062 C3.87362057 8.53784496 3.94273229 5.26932188 4 2 C2.68 1.34 1.36 0.68 0 0 Z " fill="#B8B8B8" transform="translate(63,66)"/>
<path d="M0 0 C2.31 1.98 4.62 3.96 7 6 C5.02 8.31 3.04 10.62 1 13 C-1.31 11.02 -3.62 9.04 -6 7 C-4.02 4.69 -2.04 2.38 0 0 Z " fill="#3F4F60" transform="translate(49,79)"/>
<path d="M0 0 C0.33 0 0.66 0 1 0 C1 9.9 1 19.8 1 30 C2.65 29.67 4.3 29.34 6 29 C6.33 19.76 6.66 10.52 7 1 C7.33 1 7.66 1 8 1 C8.33 10.24 8.66 19.48 9 29 C10.32 29.66 11.64 30.32 13 31 C7.39 31 1.78 31 -4 31 C-3.01 30.34 -2.02 29.68 -1 29 C-0.48815355 25.99585431 -0.48815355 25.99585431 -0.48828125 22.4609375 C-0.43510742 20.50800781 -0.43510742 20.50800781 -0.38085938 18.515625 C-0.35775769 17.13542191 -0.33497536 15.75521343 -0.3125 14.375 C-0.27933555 12.98694648 -0.2448467 11.59892393 -0.20898438 10.2109375 C-0.12625885 6.80737293 -0.05718743 3.4040741 0 0 Z " fill="#515D6F" transform="translate(21,68)"/>
<path d="M0 0 C3.3 0 6.6 0 10 0 C10 0.66 10 1.32 10 2 C9.01 2.33 8.02 2.66 7 3 C6.67 11.91 6.34 20.82 6 30 C5.34 29.67 4.68 29.34 4 29 C4.03255208 26.98177083 4.06510417 24.96354167 4.09765625 22.9453125 C4.12649242 20.91814596 4.12649242 20.91814596 3 19 C3.08938418 16.11087268 3.234048 13.25606745 3.4375 10.375 C3.48970703 9.57320312 3.54191406 8.77140625 3.59570312 7.9453125 C3.72548371 5.96320897 3.86209735 3.98155501 4 2 C2.68 2 1.36 2 0 2 C0 1.34 0 0.68 0 0 Z " fill="#626971" transform="translate(179,66)"/>
<path d="M0 0 C3.125 0.375 3.125 0.375 6 1 C6.04254356 2.99954746 6.04080783 5.00041636 6 7 C5 8 5 8 1.9375 8.0625 C0.968125 8.041875 -0.00125 8.02125 -1 8 C-1.625 5.125 -1.625 5.125 -2 2 C-1.34 1.34 -0.68 0.68 0 0 Z " fill="#868686" transform="translate(101,110)"/>
<path d="M0 0 C2.01969485 2.57052071 3.54254977 5.08509955 5 8 C5.66 8.66 6.32 9.32 7 10 C1.72 10 -3.56 10 -9 10 C-9 9.67 -9 9.34 -9 9 C-7.02 8.67 -5.04 8.34 -3 8 C-3 7.34 -3 6.68 -3 6 C-2.34 6 -1.68 6 -1 6 C-1.33 4.68 -1.66 3.36 -2 2 C-1.34 2 -0.68 2 0 2 C0 1.34 0 0.68 0 0 Z " fill="#49536A" transform="translate(142,89)"/>
<path d="M0 0 C2.33936818 2.12669835 3.80653848 4.06224856 5 7 C5 7.99 5 8.98 5 10 C2.03 10 -0.94 10 -4 10 C-2.8905928 6.51329166 -1.73662334 3.22515763 0 0 Z " fill="#E9EFF3" transform="translate(128,78)"/>
<path d="M0 0 C2.475 0.99 2.475 0.99 5 2 C5 3.32 5 4.64 5 6 C5.66 6.66 6.32 7.32 7 8 C6.01 8 5.02 8 4 8 C4 9.32 4 10.64 4 12 C1 11 1 11 -0.25 9.375 C-1.30061312 6.04805845 -0.64998375 3.37991551 0 0 Z " fill="#A6A6A6" transform="translate(78,80)"/>
<path d="M0 0 C0.33 0 0.66 0 1 0 C1.0093457 0.68102783 1.01869141 1.36205566 1.02832031 2.0637207 C1.08198131 5.14738647 1.16563551 8.22952794 1.25 11.3125 C1.26417969 12.38435547 1.27835937 13.45621094 1.29296875 14.56054688 C1.32519531 15.58857422 1.35742188 16.61660156 1.390625 17.67578125 C1.41157227 18.62364502 1.43251953 19.57150879 1.45410156 20.5480957 C1.84617599 23.56222279 1.84617599 23.56222279 6 26 C2.37 26 -1.26 26 -5 26 C-4.35546875 25.39800781 -3.7109375 24.79601562 -3.046875 24.17578125 C-0.10657063 19.61382046 -0.32864186 15.5101238 -0.25 10.1875 C-0.22035156 9.20845703 -0.19070312 8.22941406 -0.16015625 7.22070312 C-0.08970798 4.81372047 -0.03688975 2.4076921 0 0 Z " fill="#999999" transform="translate(68,73)"/>
<path d="M0 0 C0.33 0 0.66 0 1 0 C1.0093457 0.65073486 1.01869141 1.30146973 1.02832031 1.97192383 C1.08199493 4.91955506 1.1656455 7.86559393 1.25 10.8125 C1.26417969 11.83666016 1.27835938 12.86082031 1.29296875 13.91601562 C1.32519531 14.89892578 1.35742188 15.88183594 1.390625 16.89453125 C1.4220459 18.25348511 1.4220459 18.25348511 1.45410156 19.63989258 C1.86480471 22.56965585 1.86480471 22.56965585 6 25 C2.37 25 -1.26 25 -5 25 C-3.68 24.01 -2.36 23.02 -1 22 C-0.36029405 19.59761148 -0.36029405 19.59761148 -0.390625 16.89453125 C-0.35839844 15.91162109 -0.32617188 14.92871094 -0.29296875 13.91601562 C-0.27878906 12.89185547 -0.26460937 11.86769531 -0.25 10.8125 C-0.22035156 9.77673828 -0.19070312 8.74097656 -0.16015625 7.67382812 C-0.08942755 5.11580688 -0.03674743 2.55869842 0 0 Z " fill="#464C56" transform="translate(161,74)"/>
<path d="M0 0 C0.66 0 1.32 0 2 0 C2.91893304 3.59219279 3.25145386 5.42165612 1.75 8.875 C1.1725 9.57625 0.595 10.2775 0 11 C-0.99 11 -1.98 11 -3 11 C-2.44894091 7.0507432 -1.61064629 3.65079826 0 0 Z " fill="#495262" transform="translate(131,66)"/>
<path d="M0 0 C2.0625 1.6875 2.0625 1.6875 4 4 C3.9375 6.625 3.9375 6.625 3 9 C2.01 9.66 1.02 10.32 0 11 C-0.66 10.34 -1.32 9.68 -2 9 C-1 6 -1 6 0 4 C-0.33 3.01 -0.66 2.02 -1 1 C-0.67 0.67 -0.34 0.34 0 0 Z " fill="#3A485B" transform="translate(49,81)"/>
<path d="M0 0 C1.66611905 -0.042721 3.33382885 -0.04063832 5 0 C6 1 6 1 6.0625 4.5625 C6.041875 5.696875 6.02125 6.83125 6 8 C5.67 7.01 5.34 6.02 5 5 C3.68 5 2.36 5 1 5 C0.67 5.99 0.34 6.98 0 8 C0 5.36 0 2.72 0 0 Z " fill="#999B9A" transform="translate(80,110)"/>
<path d="M0 0 C1 3 1 3 1 7 C1.99 7.66 2.98 8.32 4 9 C0.37 9 -3.26 9 -7 9 C-5.76302083 7.53515625 -4.52604167 6.0703125 -3.2890625 4.60546875 C-2.10798901 3.1344954 -1.04641471 1.56962206 0 0 Z " fill="#54555B" transform="translate(121,90)"/>
<path d="M0 0 C1.65 0 3.3 0 5 0 C5.33 1.32 5.66 2.64 6 4 C4.35 4.33 2.7 4.66 1 5 C0.67 5.99 0.34 6.98 0 8 C0 5.36 0 2.72 0 0 Z " fill="#9B9C9D" transform="translate(141,110)"/>
<path d="M0 0 C3.63 0 7.26 0 11 0 C11 2.64 11 5.28 11 8 C10.2265625 6.824375 10.2265625 6.824375 9.4375 5.625 C6.4837677 2.44405752 4.18393452 1.88506307 0 1 C0 0.67 0 0.34 0 0 Z " fill="#4C505B" transform="translate(29,67)"/>
<path d="M0 0 C2.0625 0.4375 2.0625 0.4375 4 1 C3.67 2.65 3.34 4.3 3 6 C1.68 6 0.36 6 -1 6 C-1.042721 4.33388095 -1.04063832 2.66617115 -1 1 C-0.67 0.67 -0.34 0.34 0 0 Z " fill="#F4F4F4" transform="translate(102,111)"/>
<path d="M0 0 C0.99 0.99 1.98 1.98 3 3 C2.67 3.33 2.34 3.66 2 4 C1.84379445 5.41327947 1.74943827 6.8335459 1.68359375 8.25390625 C1.64169922 9.10791016 1.59980469 9.96191406 1.55664062 10.84179688 C1.51732422 11.73962891 1.47800781 12.63746094 1.4375 13.5625 C1.39431641 14.46419922 1.35113281 15.36589844 1.30664062 16.29492188 C1.20021858 18.52978485 1.09820012 20.76476308 1 23 C0.67 23 0.34 23 0 23 C0 15.41 0 7.82 0 0 Z " fill="#BBC5CD" transform="translate(162,73)"/>
<path d="M0 0 C1.98 0.495 1.98 0.495 4 1 C4 2.66666667 4 4.33333333 4 6 C2.35 5.67 0.7 5.34 -1 5 C-0.67 3.35 -0.34 1.7 0 0 Z " fill="#EFF1F3" transform="translate(61,111)"/>
<path d="M0 0 C0.33 0.66 0.66 1.32 1 2 C2.051875 1.62875 3.10375 1.2575 4.1875 0.875 C8.18632214 -0.04276246 9.49128216 0.08615391 13 2 C13 2.33 13 2.66 13 3 C7.39 3 1.78 3 -4 3 C-2.68 2.01 -1.36 1.02 0 0 Z " fill="#4F5663" transform="translate(21,96)"/>
<path d="M0 0 C5.78461538 3.32307692 5.78461538 3.32307692 6.875 6.75 C6.936875 7.86375 6.936875 7.86375 7 9 C5.68 8.67 4.36 8.34 3 8 C3 6.68 3 5.36 3 4 C2.01 3.34 1.02 2.68 0 2 C0 1.34 0 0.68 0 0 Z " fill="#F2F2F2" transform="translate(79,78)"/>
<path d="M0 0 C0 1.32 0 2.64 0 4 C-0.99 4.495 -0.99 4.495 -2 5 C-2.99 6.485 -2.99 6.485 -4 8 C-4.66 6.02 -5.32 4.04 -6 2 C-2.25 0 -2.25 0 0 0 Z " fill="#F0F0F0" transform="translate(95,75)"/>
<path d="M0 0 C0.33 1.65 0.66 3.3 1 5 C-0.65 4.67 -2.3 4.34 -4 4 C-4 3.01 -4 2.02 -4 1 C-2 0 -2 0 0 0 Z " fill="#E8E8E8" transform="translate(121,129)"/>
<path d="M0 0 C0.4125 0.45375 0.825 0.9075 1.25 1.375 C3.19019186 3.32917823 3.19019186 3.32917823 7 5 C3.37 5 -0.26 5 -4 5 C-2.68 3.35 -1.36 1.7 0 0 Z " fill="#AEAEAE" transform="translate(67,94)"/>
<path d="M0 0 C2.97 0 5.94 0 9 0 C7.25 1.5625 7.25 1.5625 5 3 C2.8125 2.8125 2.8125 2.8125 1 2 C0.67 1.34 0.34 0.68 0 0 Z " fill="#3D4653" transform="translate(158,67)"/>
<path d="M0 0 C2.475 0.495 2.475 0.495 5 1 C3.69593116 3.01920337 2.36176581 5.01924973 1 7 C0.67 7 0.34 7 0 7 C0 4.69 0 2.38 0 0 Z " fill="#475059" transform="translate(11,67)"/>
<path d="M0 0 C0.99 0 1.98 0 3 0 C3.33 2.31 3.66 4.62 4 7 C2.35 5.35 0.7 3.7 -1 2 C-0.67 1.34 -0.34 0.68 0 0 Z " fill="#4B5060" transform="translate(181,93)"/>
</svg>
